<svg version="1.1" xmlns="http://www.w3.org/2000/svg" viewBox="0 0 336 336">
<path d="M0 0 C2.97 0 5.94 0 9 0 C8.67 0.99 8.34 1.98 8 3 C7.68530593 7.62002768 7.67597496 12.24554649 7.625 16.875 C7.58761719 18.15503906 7.55023438 19.43507812 7.51171875 20.75390625 C7.22937877 27.06616297 7.22937877 27.06616297 9.08032227 32.93554688 C10.5218799 34.46425797 10.5218799 34.46425797 13 36 C13.556875 36.5775 14.11375 37.155 14.6875 37.75 C17.25963297 40.19965045 19.44131121 40.18886607 22.875 40.25 C23.73867188 40.27578125 24.60234375 40.3015625 25.4921875 40.328125 C28.50593868 39.93380242 29.82618436 39.09512548 32 37 C33.00076997 34.0882504 33.00076997 34.0882504 32 31 C28.8721049 28.14070531 24.91338024 26.46108741 21.16015625 24.56640625 C11.29715627 19.46941968 11.29715627 19.46941968 9 14 C8.38857402 10.96085322 8.54258123 9.20193142 9 6 C11.5 3 11.5 3 14 1 C14.66 1.33 15.32 1.66 16 2 C15.505 2.391875 15.01 2.78375 14.5 3.1875 C12.77203875 4.93242941 12.77203875 4.93242941 12.75 7.5 C12.92002433 10.12717443 12.92002433 10.12717443 14 13 C15.74969459 14.09260857 15.74969459 14.09260857 18 15 C19.98132214 15.95386898 21.9603141 16.91258669 23.9375 17.875 C25.46697266 18.61363281 25.46697266 18.61363281 27.02734375 19.3671875 C34.13586957 23.27173913 34.13586957 23.27173913 36 27 C36.54399285 31.539219 36.62289461 34.9544269 34.25 38.9375 C30.56339756 42.31688557 27.8691733 43.26949389 22.875 43.1875 C22.00617188 43.18105469 21.13734375 43.17460937 20.2421875 43.16796875 C18 43 18 43 16 42 C14.28691157 42.09325169 12.57690895 42.24648714 10.87109375 42.4296875 C-5.59340553 43.71774405 -5.59340553 43.71774405 -10.01123047 40.56445312 C-13.53483759 36.47955381 -17 30.50241654 -17 25 C-16.071875 24.5875 -15.14375 24.175 -14.1875 23.75 C-10.9885457 21.99371137 -9.82892407 21.06086995 -8 18 C-7.60237889 15.54876183 -7.60237889 15.54876183 -7.75 13 C-7.76546875 12.154375 -7.7809375 11.30875 -7.796875 10.4375 C-7.98487981 8.18144231 -8.37669908 6.17149996 -9 4 C-9.66 4 -10.32 4 -11 4 C-11 3.34 -11 2.68 -11 2 C-7.27226686 2.21301332 -5.99900741 3.00090436 -3.1875 5.5625 C-0.25616254 9.40930248 -0.39965749 12.2723027 -1 17 C-2.50705199 20.76762999 -3.63008361 21.78965539 -7.1875 23.8125 C-8.115625 24.204375 -9.04375 24.59625 -10 25 C-9.33651854 28.76570556 -7.64297659 31.53145505 -5.625 34.75 C-5.01914063 35.73484375 -4.41328125 36.7196875 -3.7890625 37.734375 C-2.90347656 38.85585937 -2.90347656 38.85585937 -2 40 C-1.01 40 -0.02 40 1 40 C1.02470935 34.78556667 1.04286444 29.57116739 1.05493164 24.35668945 C1.059962 22.58259487 1.06678699 20.80850444 1.07543945 19.03442383 C1.08756174 16.48517839 1.09324126 13.93598774 1.09765625 11.38671875 C1.10281754 10.59287277 1.10797882 9.79902679 1.11329651 8.98112488 C1.11362877 5.72343714 1.03772826 3.11318479 0 0 Z " fill="currentColor" transform="translate(241,175)"/>
<path d="M0 0 C13.53 0 27.06 0 41 0 C40.67 0.99 40.34 1.98 40 3 C39.90526672 4.98260678 39.86927809 6.96825733 39.8671875 8.953125 C39.86589844 10.13003906 39.86460938 11.30695313 39.86328125 12.51953125 C39.86908203 14.36611328 39.86908203 14.36611328 39.875 16.25 C39.87113281 17.46558594 39.86726563 18.68117187 39.86328125 19.93359375 C39.69284513 28.54867027 39.69284513 28.54867027 41 37 C43.8743894 39.37790396 46.86869645 39.26995222 50.5 39.25 C51.90765625 39.25773437 51.90765625 39.25773437 53.34375 39.265625 C56.04047676 38.99595232 57.68949293 38.3732259 60 37 C59 40 59 40 57.30859375 41.16796875 C54.4594157 42.19482988 52.08909431 42.30105008 49.0625 42.3125 C48.04285156 42.32925781 47.02320313 42.34601563 45.97265625 42.36328125 C41.73563129 41.84548451 39.08837434 40.20498587 36.25 37.0625 C33.94710867 33.26272931 33.87904177 29.74014737 33.90234375 25.359375 C33.90556641 24.28945312 33.90878906 23.21953125 33.91210938 22.1171875 C33.92467773 20.45042969 33.92467773 20.45042969 33.9375 18.75 C33.94201172 17.62335938 33.94652344 16.49671875 33.95117188 15.3359375 C33.96294603 12.55723783 33.9793916 9.77864591 34 7 C33.34 7 32.68 7 32 7 C31.34 6.01 30.68 5.02 30 4 C27.35308332 3.19907746 27.35308332 3.19907746 24.375 2.8125 C22.87066406 2.57466797 22.87066406 2.57466797 21.3359375 2.33203125 C20.56507812 2.22246094 19.79421875 2.11289063 19 2 C19.11807628 7.37531833 19.24231206 12.75044513 19.37231445 18.12548828 C19.41568565 19.95487575 19.45735911 21.78430427 19.49731445 23.61376953 C19.55496418 26.24003486 19.61867365 28.8660931 19.68359375 31.4921875 C19.70030624 32.31306854 19.71701874 33.13394958 19.73423767 33.97970581 C19.7431387 38.1233696 19.7431387 38.1233696 21 42 C18.03 42 15.06 42 12 42 C12.33 40.68 12.66 39.36 13 38 C13.15082384 35.23890155 13.25618708 32.49738071 13.31640625 29.734375 C13.33718735 28.94097717 13.35796844 28.14757935 13.37937927 27.33013916 C13.44459973 24.80351156 13.50363144 22.27678279 13.5625 19.75 C13.6057114 18.03384384 13.64932653 16.31769778 13.69335938 14.6015625 C13.80025283 10.40114454 13.90159729 6.20062511 14 2 C12.39763216 2.11278711 10.79621221 2.23909477 9.1953125 2.37109375 C8.30344238 2.43997803 7.41157227 2.5088623 6.49267578 2.57983398 C3.15827562 3.14188126 1.32245899 4.60012571 -1 7 C-0.67 4.69 -0.34 2.38 0 0 Z " fill="currentColor" transform="translate(51,114)"/>
<path d="M0 0 C7.45848898 0.37292445 12.48760932 5.13371198 17.3125 10.4375 C23.44425812 18.15649796 23.99082211 25.27893422 23 35 C20.64933113 43.83396528 14.59346287 49.32156316 7 54 C4.17588235 54.94137255 2.47081968 55.11725382 -0.44921875 55.09765625 C-1.29677734 55.09443359 -2.14433594 55.09121094 -3.01757812 55.08789062 C-4.33918945 55.07532227 -4.33918945 55.07532227 -5.6875 55.0625 C-6.58017578 55.05798828 -7.47285156 55.05347656 -8.39257812 55.04882812 C-10.59511987 55.03704983 -12.79752599 55.02060164 -15 55 C-14.67 54.34 -14.34 53.68 -14 53 C-13.9009111 50.17914471 -13.86017752 47.38350992 -13.8671875 44.5625 C-13.86623077 43.72662354 -13.86527405 42.89074707 -13.86428833 42.02954102 C-13.86360732 40.26090418 -13.86545609 38.49226485 -13.86962891 36.72363281 C-13.87497829 34.01101079 -13.86968125 31.29855435 -13.86328125 28.5859375 C-13.86394205 26.8697913 -13.86522324 25.1536452 -13.8671875 23.4375 C-13.86516327 22.62289307 -13.86313904 21.80828613 -13.86105347 20.96899414 C-13.77409175 16.85240837 -13.77409175 16.85240837 -15 13 C-12.03 13 -9.06 13 -6 13 C-6.33 26.53 -6.66 40.06 -7 54 C3.15665138 53.0407958 3.15665138 53.0407958 10.6875 47.3125 C16.89063212 39.0483272 16.92480735 29.90724472 16 20 C15.01896244 16.43379591 13.66784248 13.28879783 12 10 C11.67 9.01 11.34 8.02 11 7 C9.28480253 5.97348627 9.28480253 5.97348627 7 5 C4.65044852 3.69413341 2.32847143 2.3433489 0 1 C0 0.67 0 0.34 0 0 Z " fill="currentColor" transform="translate(84,162)"/>
<path d="M0 0 C4.52071021 -0.08751499 9.0412007 -0.1405661 13.5625 -0.1875 C15.47772461 -0.22520508 15.47772461 -0.22520508 17.43164062 -0.26367188 C27.09425217 -0.33896495 33.23564098 0.69413825 40.48828125 7.34375 C44.83738831 12.10866316 45.50066716 17.39389888 45.28515625 23.578125 C44.53782033 29.92536155 41.38150274 34.51660185 37 39 C31.42773838 42.76504164 26.0893644 42.35015175 19.625 42.1875 C18.09166016 42.16719727 18.09166016 42.16719727 16.52734375 42.14648438 C14.01767951 42.11130217 11.5091191 42.06207539 9 42 C9.33 41.01 9.66 40.02 10 39 C10.08507079 36.2684044 10.11591565 33.56308557 10.09765625 30.83203125 C10.0962413 30.03721848 10.09482635 29.2424057 10.09336853 28.42350769 C10.08777378 25.88646675 10.07522228 23.34951425 10.0625 20.8125 C10.05748432 19.09179815 10.05292153 17.37109492 10.04882812 15.65039062 C10.03780607 11.4335597 10.02054506 7.21679484 10 3 C8.68 3 7.36 3 6 3 C5.98018066 3.85231201 5.96036133 4.70462402 5.93994141 5.58276367 C5.86160496 8.76058324 5.77490335 11.93803582 5.68261719 15.11547852 C5.64445712 16.48778581 5.60958204 17.86018871 5.578125 19.23266602 C5.53219318 21.2113229 5.47326363 23.18966442 5.4140625 25.16796875 C5.3826416 26.35672607 5.3512207 27.5454834 5.31884766 28.77026367 C5.0100289 31.89841328 4.3293088 34.17113759 3 37 C1.86547667 33.59643001 2.28041321 32.43232705 3 29 C3.0793925 26.86971994 3.10775926 24.73720378 3.09765625 22.60546875 C3.09443359 21.40341797 3.09121094 20.20136719 3.08789062 18.96289062 C3.07951172 17.71701172 3.07113281 16.47113281 3.0625 15.1875 C3.05798828 13.92228516 3.05347656 12.65707031 3.04882812 11.35351562 C3.03706251 8.2356289 3.02062272 5.11783867 3 2 C2.01 1.67 1.02 1.34 0 1 C0 0.67 0 0.34 0 0 Z M16 2 C15.91134792 4.8843382 15.88478704 7.74462158 15.90234375 10.62890625 C15.9037587 11.49313705 15.90517365 12.35736786 15.90663147 13.24778748 C15.91224761 16.01939292 15.92480281 18.7909188 15.9375 21.5625 C15.94251292 23.4368478 15.94707619 25.31119685 15.95117188 27.18554688 C15.96222228 31.79039544 15.9794977 36.39518421 16 41 C17.41266419 41.02556087 18.82546531 41.04360782 20.23828125 41.05859375 C21.02501221 41.06947021 21.81174316 41.08034668 22.62231445 41.09155273 C27.53710807 40.9023087 31.15314622 39.6538989 34.83203125 36.359375 C38.74841781 31.55331749 39.55251284 26.8979365 39.625 20.8125 C39.63595703 20.13550049 39.64691406 19.45850098 39.65820312 18.76098633 C39.49347827 12.96934555 37.33241513 9.51137282 33.47265625 5.35546875 C29.7350092 2.25974446 20.37306648 -2.37306648 16 2 Z " fill="currentColor" transform="translate(109,114)"/>
<path d="M0 0 C7.39658692 -0.58703071 12.00434827 0.55273988 18 5 C22.91900472 9.57192166 25.06082246 14.17423267 25.375 20.8125 C25.20651887 27.12118217 23.45316732 31.49835111 19.0234375 36.015625 C12.86985292 41.52028612 9.50172758 42.31266014 1.1953125 42.203125 C-4.88150704 41.81682351 -7.76001378 39.44069938 -11.75 35.125 C-16.21324934 29.68633856 -17.48609908 25.58571666 -17.30859375 18.55859375 C-16.49500561 11.81302121 -12.96398752 7.26756227 -7.75 3.12109375 C-5.54893688 1.71103769 -3.60380632 1.15780644 -1 1 C-1.39832031 1.42410156 -1.79664063 1.84820312 -2.20703125 2.28515625 C-7.74065779 8.41119049 -10.64196786 13.98072116 -10.34765625 22.375 C-9.57154672 28.23506299 -7.58189616 33.90317371 -3.3125 38.125 C0.98953303 40.56011304 4.16868665 40.91777637 9 40 C12.86283025 38.21165266 14.55785764 36.67795162 16.875 33.125 C19.15641832 26.79987015 19.17557142 18.80331929 17.203125 12.421875 C15.17586907 8.21142037 12.90222367 4.92540611 8.6875 2.875 C5.80330321 1.93595918 3.00081818 1.41871882 0 1 C0 0.67 0 0.34 0 0 Z " fill="currentColor" transform="translate(185,175)"/>
<path d="M0 0 C5.24359741 2.88235013 8.04374768 5.94999602 11.0625 11.125 C12.73080357 17.79821427 12.51225339 23.99583513 9.10546875 30.046875 C6.77487687 33.19015166 3.87798596 35.55536997 0.75 37.875 C0.09 37.545 -0.57 37.215 -1.25 36.875 C-0.63125 36.153125 -0.0125 35.43125 0.625 34.6875 C5.83269282 27.79496538 5.60281957 20.15702093 4.75 11.875 C3.12629447 7.20597553 0.56153626 4.58068371 -3.125 1.375 C-6.91008555 -0.44184106 -9.09575095 -0.71846415 -13.25 -0.125 C-17.63785053 2.15330701 -20.16807106 4.38241649 -22.25 8.875 C-24.53847252 16.36454644 -23.6225729 23.56316684 -20.5234375 30.640625 C-17.87361793 35.29000167 -13.99377531 37.58490158 -9.25 39.875 C-14.68942361 39.96313881 -18.39869186 39.25393847 -22.625 35.6875 C-28.15621828 30.24425338 -29.81476967 25.20729136 -30.3125 17.5546875 C-30.1609926 11.05880753 -26.70621538 6.33121538 -22.25 1.875 C-14.9906011 -3.25582242 -8.01794129 -3.6758811 0 0 Z " fill="currentColor" transform="translate(191.25,116.125)"/>
<path d="M0 0 C30.36 0 60.72 0 92 0 C92 1.32 92 2.64 92 4 C61.64 4 31.28 4 0 4 C0 2.68 0 1.36 0 0 Z " fill="currentColor" transform="translate(236,224)"/>
<path d="M0 0 C4.31248609 -0.02886537 8.62494762 -0.04675255 12.9375 -0.0625 C14.16919922 -0.07087891 15.40089844 -0.07925781 16.66992188 -0.08789062 C17.83974609 -0.09111328 19.00957031 -0.09433594 20.21484375 -0.09765625 C21.84087524 -0.10551147 21.84087524 -0.10551147 23.49975586 -0.11352539 C26 0 26 0 27 1 C27.04063832 2.66617115 27.042721 4.33388095 27 6 C25.9275 5.360625 24.855 4.72125 23.75 4.0625 C18.01921221 1.272344 18.01921221 1.272344 7 1 C7 14.2 7 27.4 7 41 C17.69988819 40.76759875 17.69988819 40.76759875 26 37 C26.99 36.505 26.99 36.505 28 36 C28.042721 37.66611905 28.04063832 39.33382885 28 41 C27 42 27 42 24.40795898 42.11352539 C23.28204346 42.10828857 22.15612793 42.10305176 20.99609375 42.09765625 C19.78115234 42.09443359 18.56621094 42.09121094 17.31445312 42.08789062 C16.03505859 42.07951172 14.75566406 42.07113281 13.4375 42.0625 C12.15423828 42.05798828 10.87097656 42.05347656 9.54882812 42.04882812 C6.36583978 42.03699545 3.18294238 42.02051068 0 42 C0.33 41.01 0.66 40.02 1 39 C1.09684514 36.3879222 1.13998109 33.80335834 1.1328125 31.19140625 C1.13376923 30.42827621 1.13472595 29.66514618 1.13571167 28.87889099 C1.13639174 27.26585813 1.13454951 25.65282252 1.13037109 24.03979492 C1.12502774 21.57529521 1.13031811 19.11097836 1.13671875 16.64648438 C1.13605779 15.0781246 1.13477627 13.50976494 1.1328125 11.94140625 C1.13483673 11.20588028 1.13686096 10.47035431 1.13894653 9.71253967 C1.12353553 6.33548728 1.05561551 3.22817078 0 0 Z " fill="currentColor" transform="translate(106,175)"/>
<path d="M0 0 C0.66 0.33 1.32 0.66 2 1 C1.67 1.33 1.34 1.66 1 2 C0.50460594 6.0639852 0.50460594 6.0639852 1 10 C3.1006926 12.48386038 3.1006926 12.48386038 6 15 C7.22159162 16.11302069 8.44292997 17.2263194 9.6640625 18.33984375 C11.65220545 20.14778649 13.64197377 21.95262238 15.6484375 23.74023438 C20.58821002 28.26012623 23.66072168 31.99496349 24.4375 38.875 C24.18903432 44.77041297 21.67804215 49.32195785 17.5625 53.4375 C14.95948831 55.02470225 13.01090819 55.65589621 10 56 C10.763125 55.46375 11.52625 54.9275 12.3125 54.375 C15.93733168 51.17166038 17.67191587 48.45662994 18.3203125 43.6015625 C18.58138785 37.80568983 17.91737405 34.4906483 14 30 C11.06340641 26.93191715 8.05434084 23.95052604 5 21 C3.30758523 19.35332617 1.64582479 17.6942314 0 16 C-0.598125 15.401875 -1.19625 14.80375 -1.8125 14.1875 C-3.61650517 10.86433257 -3.59106999 7.69797637 -3 4 C-1.5 1.5 -1.5 1.5 0 0 Z " fill="currentColor" transform="translate(28,115)"/>
<path d="M0 0 C0.99 0.33 1.98 0.66 3 1 C2.21625 1.2475 1.4325 1.495 0.625 1.75 C-2.43098307 3.20523003 -2.85025533 3.90453358 -4 7 C-4.33902344 7.74121094 -4.67804688 8.48242188 -5.02734375 9.24609375 C-7.3717122 15.88376345 -6.97356805 23.65322189 -4.125 30.0625 C-3.43876148 31.38668618 -2.73132179 32.70016893 -2 34 C-1.6596875 34.72574219 -1.319375 35.45148438 -0.96875 36.19921875 C-0.16811931 38.11987234 -0.16811931 38.11987234 1.625 38.75 C8.07159395 39.42858884 12.4203054 39.59580319 18 36 C20.81356892 33.43802877 20.81356892 33.43802877 23 31 C23 32.65 23 34.3 23 36 C16.20554235 40.80416197 10.27714567 42.34462286 2 41 C-4.29709551 38.92946181 -7.91486599 35.596385 -11.125 29.8671875 C-13.82400039 24.10771346 -13.84126389 17.92992549 -12 11.875 C-9.81104743 6.5982496 -5.05611598 2.52805799 0 0 Z " fill="currentColor" transform="translate(146,176)"/>
<path d="M0 0 C2.97 0 5.94 0 9 0 C8.67 0.99 8.34 1.98 8 3 C7.90289231 5.78076115 7.86004055 8.53572615 7.8671875 11.31640625 C7.86575241 12.53480446 7.86575241 12.53480446 7.86428833 13.77781677 C7.86360827 15.49339882 7.86545045 17.20898345 7.86962891 18.92456055 C7.87498653 21.5558853 7.86967451 24.18703989 7.86328125 26.81835938 C7.86394193 28.48437538 7.86522287 30.15039127 7.8671875 31.81640625 C7.86516327 32.60600235 7.86313904 33.39559845 7.86105347 34.2091217 C7.78604431 38.23495867 7.78604431 38.23495867 9 42 C6.03 42 3.06 42 0 42 C0.33 41.34 0.66 40.68 1 40 C1.09901946 37.26351313 1.13982822 34.55304218 1.1328125 31.81640625 C1.13376923 31.0050975 1.13472595 30.19378876 1.13571167 29.3578949 C1.13639271 27.64053266 1.13454372 25.92316785 1.13037109 24.20581055 C1.12502865 21.57660124 1.13031507 18.9475633 1.13671875 16.31835938 C1.13605782 14.65104129 1.13477635 12.98372331 1.1328125 11.31640625 C1.13483673 10.52883438 1.13686096 9.74126251 1.13894653 8.92982483 C1.12504608 5.69264047 1.03104833 3.093145 0 0 Z " fill="currentColor" transform="translate(153,114)"/>
<path d="M0 0 C2.97 0 5.94 0 9 0 C8.67 1.32 8.34 2.64 8 4 C7.84861775 6.90668312 7.74356343 9.79458636 7.68359375 12.703125 C7.66281265 13.54091492 7.64203156 14.37870483 7.62062073 15.24188232 C7.5553745 17.91117356 7.49635642 20.58056098 7.4375 23.25 C7.39429106 25.06250984 7.35067601 26.87501005 7.30664062 28.6875 C7.19971871 33.12490209 7.09838134 37.56240068 7 42 C4.69 42 2.38 42 0 42 C0.33 41.34 0.66 40.68 1 40 C1.0990889 37.17914471 1.13982248 34.38350992 1.1328125 31.5625 C1.13376923 30.72662354 1.13472595 29.89074707 1.13571167 29.02954102 C1.13639268 27.26090418 1.13454391 25.49226485 1.13037109 23.72363281 C1.12502171 21.01101079 1.13031875 18.29855435 1.13671875 15.5859375 C1.13605795 13.8697913 1.13477676 12.1536452 1.1328125 10.4375 C1.13483673 9.62289307 1.13686096 8.80828613 1.13894653 7.96899414 C1.22590825 3.85240837 1.22590825 3.85240837 0 0 Z " fill="currentColor" transform="translate(69,175)"/>
<path d="M0 0 C2.28615516 3.42923274 3.69026057 6.99591728 5.1875 10.80859375 C5.49067139 11.57172379 5.79384277 12.33485382 6.10620117 13.12110901 C7.07408606 15.55861873 8.03734366 17.99792111 9 20.4375 C9.96324128 22.87326872 10.9274945 25.30862407 11.89379883 27.74317932 C12.49451739 29.25717807 13.0933907 30.77191062 13.69018555 32.28746033 C15.00744657 35.61204665 16.39857299 38.79714597 18 42 C14.7 42 11.4 42 8 42 C8.21333984 41.31156006 8.42667969 40.62312012 8.64648438 39.91381836 C9.10856244 36.10518455 8.10942197 33.91791528 6.65625 30.37890625 C6.1471257 29.10091533 5.63801142 27.82292042 5.12890625 26.54492188 C4.31622682 24.55103377 3.49865334 22.55922789 2.67919922 20.56811523 C1.88862823 18.63467955 1.11577616 16.69480574 0.34375 14.75390625 C-0.12869141 13.60220947 -0.60113281 12.4505127 -1.08789062 11.26391602 C-2.26592 7.04842493 -1.95634745 3.9126949 0 0 Z " fill="currentColor" transform="translate(295,175)"/>
<path d="M0 0 C1.98 0 3.96 0 6 0 C6.02505615 1.09989258 6.0501123 2.19978516 6.07592773 3.33300781 C6.17018206 7.41824765 6.27035865 11.50332461 6.37231445 15.58837891 C6.41559514 17.35559272 6.45727505 19.1228465 6.49731445 20.89013672 C6.55518351 23.4320886 6.61882981 25.97384059 6.68359375 28.515625 C6.70030624 29.30430969 6.71701874 30.09299438 6.73423767 30.90557861 C6.83040294 34.47571118 7.12848515 37.51394061 8 41 C5.03 41 2.06 41 -1 41 C-0.67 40.34 -0.34 39.68 0 39 C0.08698228 36.08300726 0.11551923 33.19017452 0.09765625 30.2734375 C0.0962413 29.41062164 0.09482635 28.54780579 0.09336853 27.65884399 C0.08776188 24.8975277 0.07520827 22.13629188 0.0625 19.375 C0.05748586 17.5052095 0.0529228 15.63541774 0.04882812 13.765625 C0.03779029 9.17705223 0.0205212 4.58853977 0 0 Z " fill="currentColor" transform="translate(211,176)"/>
<path d="M0 0 C1.65 0 3.3 0 5 0 C5.02505615 1.17095215 5.0501123 2.3419043 5.07592773 3.54833984 C5.16993703 7.88325378 5.27017341 12.21800504 5.37231445 16.55273438 C5.41568789 18.43062542 5.45736118 20.30855652 5.49731445 22.18652344 C5.55495876 24.8822844 5.61866981 27.57784327 5.68359375 30.2734375 C5.70030624 31.11619232 5.71701874 31.95894714 5.73423767 32.82723999 C5.73236144 37.0486661 5.73236144 37.0486661 7 41 C4.03 41 1.06 41 -2 41 C-1.67 39.68 -1.34 38.36 -1 37 C-0.84889043 34.16611169 -0.74368466 31.35139452 -0.68359375 28.515625 C-0.66281265 27.70003113 -0.64203156 26.88443726 -0.62062073 26.04412842 C-0.55538703 23.44616895 -0.49636232 20.84811087 -0.4375 18.25 C-0.39428986 16.485667 -0.35067478 14.72134387 -0.30664062 12.95703125 C-0.19973255 8.63812116 -0.09839173 4.31911216 0 0 Z " fill="currentColor" transform="translate(65,115)"/>
<path d="M0 0 C1.98 0 3.96 0 6 0 C6 13.53 6 27.06 6 41 C3.69 41 1.38 41 -1 41 C-0.67 40.01 -0.34 39.02 0 38 C0.0853013 35.12305329 0.11585645 32.27099818 0.09765625 29.39453125 C0.0962413 28.55532639 0.09482635 27.71612152 0.09336853 26.85148621 C0.08777215 24.17178784 0.07522035 21.4921731 0.0625 18.8125 C0.05748453 16.99544392 0.05292171 15.17838652 0.04882812 13.36132812 C0.03780391 8.90751987 0.02054178 4.45377411 0 0 Z " fill="currentColor" transform="translate(119,115)"/>
<path d="M0 0 C0.99 0.33 1.98 0.66 3 1 C2.236875 1.556875 1.47375 2.11375 0.6875 2.6875 C-3.7664357 6.5199563 -5.62227189 10.4704095 -6.23828125 16.2265625 C-6.42123734 22.13893295 -5.38653809 26.41897782 -2.875 31.7734375 C-2 34 -2 34 -2 38 C-6.9317655 36.17342019 -9.73258751 32.17270713 -12.3125 27.75 C-13.98051759 21.07792962 -13.76858622 14.86908785 -10.34765625 8.82421875 C-7.61568305 5.12615648 -4.11698261 2.0584913 0 0 Z " fill="currentColor" transform="translate(181,176)"/>
<path d="M0 0 C1.05445312 -0.01417969 2.10890625 -0.02835938 3.1953125 -0.04296875 C5.875 0.1875 5.875 0.1875 7.875 2.1875 C6.8128125 2.21328125 5.750625 2.2390625 4.65625 2.265625 C-4.74676908 2.59910481 -11.26727697 3.3465097 -18.8125 9.3125 C-24.09071892 15.87461001 -26.91802184 21.99537662 -26.484375 30.51171875 C-25.63669019 36.82328503 -23.91399334 42.77658509 -19.125 47.1875 C-16.19816487 48.72687349 -13.21229588 50.00667529 -10.125 51.1875 C-10.455 51.8475 -10.785 52.5075 -11.125 53.1875 C-19.61481263 50.30959741 -23.84595014 47.30926129 -28.109375 39.30859375 C-31.34529746 32.55049416 -31.04396292 24.4849552 -29.0625 17.375 C-23.84392607 8.78960419 -17.86356924 3.67771169 -8.20703125 0.5703125 C-5.45235132 0.06382351 -2.7996751 0.01719702 0 0 Z " fill="currentColor" transform="translate(76.125,159.8125)"/>
<path d="M0 0 C1.32 0.33 2.64 0.66 4 1 C4.33 12.55 4.66 24.1 5 36 C4.01 36 3.02 36 2 36 C2 35.34 2 34.68 2 34 C1.34 34 0.68 34 0 34 C0 22.78 0 11.56 0 0 Z " fill="currentColor" transform="translate(243,181)"/>
<path d="M0 0 C0.66 0.33 1.32 0.66 2 1 C1.505 1.391875 1.01 1.78375 0.5 2.1875 C-1.22796125 3.93242941 -1.22796125 3.93242941 -1.25 6.5 C-1.07997567 9.12717443 -1.07997567 9.12717443 0 12 C1.69769234 13.10168984 1.69769234 13.10168984 4 14 C4.60070312 14.26039063 5.20140625 14.52078125 5.8203125 14.7890625 C7.5429003 15.53528474 9.27109245 16.26853911 11 17 C8 18 8 18 5 18 C4.67 18.99 4.34 19.98 4 21 C0.57542144 20.04872818 -0.93431491 19.07456145 -3.3125 16.375 C-5.5233715 11.953257 -5.70010555 9.90073887 -5 5 C-2.5 2 -2.5 2 0 0 Z " fill="currentColor" transform="translate(255,176)"/>
<path d="M0 0 C0.33 0 0.66 0 1 0 C2.76915323 23.46169355 2.76915323 23.46169355 0 29 C-0.66 29 -1.32 29 -2 29 C-2.33 29.66 -2.66 30.32 -3 31 C-3.07007072 27.56653488 -3.05422778 24.33214513 -2.5 20.9375 C-1.86872562 15.96621429 -2.02594077 11.11292817 -2.16015625 6.109375 C-2 3 -2 3 0 0 Z " fill="currentColor" transform="translate(111,180)"/>
<path d="M0 0 C2.97 0 5.94 0 9 0 C8.67 0.99 8.34 1.98 8 3 C7.90289231 5.78076115 7.86004055 8.53572615 7.8671875 11.31640625 C7.86575241 12.53480446 7.86575241 12.53480446 7.86428833 13.77781677 C7.86360827 15.49339882 7.86545045 17.20898345 7.86962891 18.92456055 C7.87498653 21.5558853 7.86967451 24.18703989 7.86328125 26.81835938 C7.86394193 28.48437538 7.86522287 30.15039127 7.8671875 31.81640625 C7.86516327 32.60600235 7.86313904 33.39559845 7.86105347 34.2091217 C7.78604431 38.23495867 7.78604431 38.23495867 9 42 C6.03 42 3.06 42 0 42 C0.33 41.34 0.66 40.68 1 40 C1.99 40 2.98 40 4 40 C5.03987597 35.75054147 5.12989631 31.64072144 5.09765625 27.29296875 C5.09553383 26.20487663 5.09553383 26.20487663 5.09336853 25.09480286 C5.08779931 22.7923255 5.07525261 20.48994765 5.0625 18.1875 C5.05748102 16.62044412 5.05291881 15.0533867 5.04882812 13.48632812 C5.03783998 9.65751411 5.02059673 5.82877389 5 2 C3.35 2 1.7 2 0 2 C0 1.34 0 0.68 0 0 Z " fill="currentColor" transform="translate(153,114)"/>
<path d="M0 0 C0.99 0 1.98 0 3 0 C3 2.97 3 5.94 3 9 C2.01 8.67 1.02 8.34 0 8 C-0.38063221 5.6739143 -0.71269945 3.33944736 -1 1 C-0.67 0.67 -0.34 0.34 0 0 Z " fill="currentColor" transform="translate(163,128)"/>
<path d="M0 0 C2.4375 0.625 2.4375 0.625 5 2 C5.8125 5.125 5.8125 5.125 6 8 C3.11562221 6.70700306 1.12780579 5.34058637 -1 3 C-0.67 2.01 -0.34 1.02 0 0 Z " fill="currentColor" transform="translate(173,206)"/>
<path d="M0 0 C1.88391785 3.26545761 2.49287967 6.28111761 3 10 C0.0625 8.6875 0.0625 8.6875 -3 7 C-3.33 6.01 -3.66 5.02 -4 4 C-3.01 4 -2.02 4 -1 4 C-0.67 2.68 -0.34 1.36 0 0 Z " fill="currentColor" transform="translate(90,144)"/>
<path d="M0 0 C2 2 2 2 2.3125 5 C2.209375 5.99 2.10625 6.98 2 8 C1.01 8.66 0.02 9.32 -1 10 C-1.125 3.375 -1.125 3.375 0 0 Z " fill="currentColor" transform="translate(157,115)"/>
<path d="M0 0 C0.99 0.33 1.98 0.66 3 1 C3 2.65 3 4.3 3 6 C1.35 6.66 -0.3 7.32 -2 8 C-1.67 7.236875 -1.34 6.47375 -1 5.6875 C0.17436686 3.00930865 0.17436686 3.00930865 0 0 Z " fill="currentColor" transform="translate(150,134)"/>
</svg>