<?xml version="1.0" encoding="UTF-8"?>
<svg version="1.1" xmlns="http://www.w3.org/2000/svg" width="336" height="336">
<path d="M0 0 C110.88 0 221.76 0 336 0 C336 110.88 336 221.76 336 336 C225.12 336 114.24 336 0 336 C0 225.12 0 114.24 0 0 Z " fill="#F4F3EF" transform="translate(0,0)"/>
<path d="M0 0 C0.33 0.66 0.66 1.32 1 2 C1.66 2 2.32 2 3 2 C3 2.66 3 3.32 3 4 C4.32 4 5.64 4 7 4 C7.33 4 7.66 4 8 4 C8.43417236 3.51321777 8.86834473 3.02643555 9.31567383 2.52490234 C12.21140481 -0.09674365 15.97771331 0.57101766 19.6875 0.625 C20.85442383 0.60759766 20.85442383 0.60759766 22.04492188 0.58984375 C28.01782451 0.61973317 33.72483112 1.46330551 38.6003418 5.23950195 C41.23337406 7.96347097 42.33255117 10.36467157 42.5 14.0625 C41.99258769 18.05837194 41.5991039 19.96771212 39 23 C35.8125 24.8125 35.8125 24.8125 33 26 C33.66348146 29.76570556 35.35702341 32.53145505 37.375 35.75 C37.98085937 36.73484375 38.58671875 37.7196875 39.2109375 38.734375 C40.09652344 39.85585937 40.09652344 39.85585937 41 41 C41.99 41 42.98 41 44 41 C44.02470935 35.78556667 44.04286444 30.57116739 44.05493164 25.35668945 C44.059962 23.58259487 44.06678699 21.80850444 44.07543945 20.03442383 C44.08756174 17.48517839 44.09324126 14.93598774 44.09765625 12.38671875 C44.10281754 11.59287277 44.10797882 10.79902679 44.11329651 9.98112488 C44.11362877 6.72343714 44.03772826 4.11318479 43 1 C45.97 1 48.94 1 52 1 C51.67 1.99 51.34 2.98 51 4 C50.68530593 8.62002768 50.67597496 13.24554649 50.625 17.875 C50.58761719 19.15503906 50.55023438 20.43507812 50.51171875 21.75390625 C50.22937877 28.06616297 50.22937877 28.06616297 52.08032227 33.93554688 C53.5218799 35.46425797 53.5218799 35.46425797 56 37 C56.556875 37.5775 57.11375 38.155 57.6875 38.75 C60.25963297 41.19965045 62.44131121 41.18886607 65.875 41.25 C67.17050781 41.28867188 67.17050781 41.28867188 68.4921875 41.328125 C71.50593868 40.93380242 72.82618436 40.09512548 75 38 C76.00076997 35.0882504 76.00076997 35.0882504 75 32 C71.8721049 29.14070531 67.91338024 27.46108741 64.16015625 25.56640625 C54.29715627 20.46941968 54.29715627 20.46941968 52 15 C51.38857402 11.96085322 51.54258123 10.20193142 52 7 C54.5 4 54.5 4 57 2 C57.99 2.495 57.99 2.495 59 3 C58.505 3.391875 58.01 3.78375 57.5 4.1875 C55.77203875 5.93242941 55.77203875 5.93242941 55.75 8.5 C55.92002433 11.12717443 55.92002433 11.12717443 57 14 C58.74969459 15.09260857 58.74969459 15.09260857 61 16 C62.98132214 16.95386898 64.9603141 17.91258669 66.9375 18.875 C67.95714844 19.36742187 68.97679687 19.85984375 70.02734375 20.3671875 C74.71164627 22.94016838 77.5147667 24.61361915 79.3125 29.75 C79.539375 30.8225 79.76625 31.895 80 33 C82.01432266 32.49743888 82.01432266 32.49743888 84 31 C84.69356423 28.67451993 85.36149212 26.34119555 86 24 C86.99 23.67 87.98 23.34 89 23 C89.13728516 22.03513672 89.13728516 22.03513672 89.27734375 21.05078125 C90.26125356 16.89708631 91.90161643 13.11113187 93.5625 9.1875 C93.89185547 8.39923828 94.22121094 7.61097656 94.56054688 6.79882812 C95.36958906 4.86416204 96.18423852 2.93184247 97 1 C99.28615516 4.42923274 100.69026057 7.99591728 102.1875 11.80859375 C102.49067139 12.57172379 102.79384277 13.33485382 103.10620117 14.12110901 C104.07408606 16.55861873 105.03734366 18.99792111 106 21.4375 C106.96324128 23.87326872 107.9274945 26.30862407 108.89379883 28.74317932 C109.49451739 30.25717807 110.0933907 31.77191062 110.69018555 33.28746033 C112.00744657 36.61204665 113.39857299 39.79714597 115 43 C111.7 43 108.4 43 105 43 C105.30744141 41.92685547 105.30744141 41.92685547 105.62109375 40.83203125 C106.07342976 37.45116932 105.4247487 35.78351977 104.0625 32.6875 C103.381875 31.140625 102.70125 29.59375 102 28 C95.07 27.505 95.07 27.505 88 27 C87.525625 28.546875 87.05125 30.09375 86.5625 31.6875 C86.29566406 32.55761719 86.02882813 33.42773438 85.75390625 34.32421875 C85.03655471 36.87025921 84.482459 39.4003423 84 42 C84.66 42.33 85.32 42.66 86 43 C83.69 43 81.38 43 79 43 C79 42.01 79 41.02 79 40 C77.35 41.32 75.7 42.64 74 44 C74.495 45.98 74.495 45.98 75 48 C93.15 48.33 111.3 48.66 130 49 C130 50.65 130 52.3 130 54 C99.64 54 69.28 54 38 54 C38 52.35 38 50.7 38 49 C45.92 48.505 45.92 48.505 54 48 C53.67 47.67 53.34 47.34 53 47 C52.67 46.01 52.34 45.02 52 44 C46.39 44 40.78 44 35 44 C33.79557292 41.52604167 32.59114583 39.05208333 31.38671875 36.578125 C30.07633928 33.98339185 30.07633928 33.98339185 28.33203125 31.796875 C27 30 27 30 27 28 C24.69 28 22.38 28 20 28 C20.495 35.425 20.495 35.425 21 43 C18.03 43 15.06 43 12 43 C12 39.04 12 35.08 12 31 C8.91107317 31.64306304 8.91107317 31.64306304 8.03125 33.86328125 C7.6909375 34.56839844 7.350625 35.27351563 7 36 C5.34375 37.66796875 5.34375 37.66796875 3.5 39.1875 C2.8915625 39.69667969 2.283125 40.20585937 1.65625 40.73046875 C-3.12000961 44.3915168 -9.25716638 43.36507011 -15 43 C-21.58882033 41.04775694 -25.96511121 35.36199018 -29.4375 29.625 C-30.86956333 22.94203782 -30.7789468 16.84338041 -27.3359375 10.82421875 C-24.32941223 6.71881729 -20.97622592 3.58866304 -16.0625 2.125 C-15.381875 2.08375 -14.70125 2.0425 -14 2 C-14.39832031 2.42410156 -14.79664063 2.84820312 -15.20703125 3.28515625 C-20.74065779 9.41119049 -23.64196786 14.98072116 -23.34765625 23.375 C-22.57154672 29.23506299 -20.58189616 34.90317371 -16.3125 39.125 C-12.01046697 41.56011304 -8.83131335 41.91777637 -4 41 C-0.13716975 39.21165266 1.55785764 37.67795162 3.875 34.125 C6.15641832 27.79987015 6.17557142 19.80331929 4.203125 13.421875 C2.17586907 9.21142037 -0.09777633 5.92540611 -4.3125 3.875 C-7.19669679 2.93595918 -9.99918182 2.41871882 -13 2 C-13 1.67 -13 1.34 -13 1 C-11.56260487 0.97287934 -10.12506137 0.95354933 -8.6875 0.9375 C-7.48673828 0.92009766 -7.48673828 0.92009766 -6.26171875 0.90234375 C-4 1 -4 1 -1 2 C-0.67 1.34 -0.34 0.68 0 0 Z " fill="#D7D6D3" transform="translate(198,174)"/>
<path d="M0 0 C2.51887427 0.03825393 4.98950444 0.14436589 7.5 0.3125 C8.20253906 0.34794922 8.90507813 0.38339844 9.62890625 0.41992188 C11.42594233 0.53591553 13.21525847 0.76022748 15 1 C15.33 1.66 15.66 2.32 16 3 C16.99 2.34 17.98 1.68 19 1 C20.95524597 0.75949097 20.95524597 0.75949097 23.19604492 0.77294922 C24.45701241 0.77317581 24.45701241 0.77317581 25.74345398 0.77340698 C27.09827629 0.78889084 27.09827629 0.78889084 28.48046875 0.8046875 C29.87245232 0.80893234 29.87245232 0.80893234 31.29255676 0.81326294 C34.25766879 0.82446164 37.22247921 0.84956565 40.1875 0.875 C42.19726126 0.8850302 44.20702726 0.89415598 46.21679688 0.90234375 C51.14464753 0.92439996 56.07227262 0.95892771 61 1 C60.67 1.99 60.34 2.98 60 4 C59.90526672 5.98260678 59.86927809 7.96825733 59.8671875 9.953125 C59.86589844 11.13003906 59.86460938 12.30695313 59.86328125 13.51953125 C59.86714844 14.75058594 59.87101562 15.98164063 59.875 17.25 C59.87113281 18.46558594 59.86726563 19.68117187 59.86328125 20.93359375 C59.69284513 29.54867027 59.69284513 29.54867027 61 38 C63.8743894 40.37790396 66.86869645 40.26995222 70.5 40.25 C71.90765625 40.25773437 71.90765625 40.25773437 73.34375 40.265625 C76.04047676 39.99595232 77.68949293 39.3732259 80 38 C79 41 79 41 77.30859375 42.16796875 C74.4594157 43.19482988 72.08909431 43.30105008 69.0625 43.3125 C68.04285156 43.32925781 67.02320312 43.34601563 65.97265625 43.36328125 C61.73563129 42.84548451 59.08837434 41.20498587 56.25 38.0625 C53.94710867 34.26272931 53.87904177 30.74014737 53.90234375 26.359375 C53.90556641 25.28945312 53.90878906 24.21953125 53.91210938 23.1171875 C53.92467773 21.45042969 53.92467773 21.45042969 53.9375 19.75 C53.94201172 18.62335938 53.94652344 17.49671875 53.95117188 16.3359375 C53.96294603 13.55723783 53.9793916 10.77864591 54 8 C53.34 8 52.68 8 52 8 C51.34 7.01 50.68 6.02 50 5 C47.35308332 4.19907746 47.35308332 4.19907746 44.375 3.8125 C42.87066406 3.57466797 42.87066406 3.57466797 41.3359375 3.33203125 C40.56507812 3.22246094 39.79421875 3.11289063 39 3 C39.03029297 4.13018555 39.06058594 5.26037109 39.09179688 6.42480469 C39.20414894 10.62173061 39.31580251 14.81867487 39.42724609 19.015625 C39.47555829 20.83138528 39.52405938 22.64714055 39.57275391 24.46289062 C39.64275087 27.07420575 39.71206637 29.68553822 39.78125 32.296875 C39.80312378 33.10743347 39.82499756 33.91799194 39.84753418 34.75311279 C39.94627873 38.50391553 40 42.24775488 40 46 C40.77085938 46.04898438 41.54171875 46.09796875 42.3359375 46.1484375 C43.33882812 46.22320312 44.34171875 46.29796875 45.375 46.375 C46.87160156 46.47941406 46.87160156 46.47941406 48.3984375 46.5859375 C51 47 51 47 53 49 C51.9378125 49.02578125 50.875625 49.0515625 49.78125 49.078125 C40.37823092 49.41160481 33.85772303 50.1590097 26.3125 56.125 C21.03428108 62.68711001 18.20697816 68.80787662 18.640625 77.32421875 C19.48830981 83.63578503 21.21100666 89.58908509 26 94 C28.92683513 95.53937349 31.91270412 96.81917529 35 98 C34.67 98.66 34.34 99.32 34 100 C25.51018737 97.12209741 21.27904986 94.12176129 17.015625 86.12109375 C14.11084063 80.05456332 13.79198509 72.23916889 15.63671875 65.765625 C16.36910386 64.15080515 17.18092487 62.57262425 18 61 C18.33 59.35 18.66 57.7 19 56 C15.04 56.66 11.08 57.32 7 58 C7.763125 57.46375 8.52625 56.9275 9.3125 56.375 C12.93733168 53.17166038 14.67191587 50.45662994 15.3203125 45.6015625 C15.58138785 39.80568983 14.91737405 36.4906483 11 32 C8.06340641 28.93191715 5.05434084 25.95052604 2 23 C0.30758523 21.35332617 -1.35417521 19.6942314 -3 18 C-3.598125 17.401875 -4.19625 16.80375 -4.8125 16.1875 C-6.61840648 12.86083018 -6.80044681 9.63446118 -6 6 C-3.5625 3.0625 -3.5625 3.0625 -1 1 C-0.67 0.67 -0.34 0.34 0 0 Z " fill="#EEEDE9" transform="translate(31,113)"/>
<path d="M0 0 C8.58 0 17.16 0 26 0 C26.99 2.31 27.98 4.62 29 7 C29.66 7 30.32 7 31 7 C31 6.34 31 5.68 31 5 C32.71242945 4.26130495 34.42578045 3.52464636 36.14453125 2.80078125 C37.57512303 2.18336796 38.98135958 1.50932021 40.375 0.8125 C47.32616144 -1.33904997 54.54102682 -0.19825364 61 3 C62.97128624 4.54394447 64.38004858 6.0665096 66 8 C65.505 9.11375 65.01 10.2275 64.5 11.375 C61.96319044 18.25715798 62.03514883 24.40396727 65 31.125 C65.64825209 32.42600594 66.30828909 33.72157001 67 35 C66.34 35 65.68 35 65 35 C65 35.99 65 36.98 65 38 C64.37351562 38.20496094 63.74703125 38.40992188 63.1015625 38.62109375 C62.28429687 38.89050781 61.46703125 39.15992188 60.625 39.4375 C59.81289062 39.70433594 59.00078125 39.97117188 58.1640625 40.24609375 C55.98968201 40.95179729 55.98968201 40.95179729 54 42 C46.92060328 42.77310105 41.00851502 42.50654312 34.91015625 38.6328125 C30.89612203 35.20159306 28.64986469 30.94959407 27 26 C26.90471177 23.66824086 26.87013812 21.33370026 26.875 19 C26.87113281 17.14375 26.87113281 17.14375 26.8671875 15.25 C27 12 27 12 28 9 C27.34 9 26.68 9 26 9 C24.75453595 11.49092811 25.2232422 12.41080733 26 15 C25.01 15.33 24.02 15.66 23 16 C21.97718482 18.09719872 21.97718482 18.09719872 21.3125 20.5625 C21.06113281 21.38878906 20.80976562 22.21507812 20.55078125 23.06640625 C20.36902344 23.70449219 20.18726562 24.34257812 20 25 C19.34 25 18.68 25 18 25 C17.67 24.34 17.34 23.68 17 23 C14.64400765 22.53248212 14.64400765 22.53248212 11.9375 22.375 C9.4934375 22.189375 9.4934375 22.189375 7 22 C7 28.27 7 34.54 7 41 C16.98109551 40.76244073 16.98109551 40.76244073 26 37 C26.99 36.505 26.99 36.505 28 36 C28.042721 37.66611905 28.04063832 39.33382885 28 41 C27 42 27 42 24.40795898 42.11352539 C23.28204346 42.10828857 22.15612793 42.10305176 20.99609375 42.09765625 C19.78115234 42.09443359 18.56621094 42.09121094 17.31445312 42.08789062 C16.03505859 42.07951172 14.75566406 42.07113281 13.4375 42.0625 C12.15423828 42.05798828 10.87097656 42.05347656 9.54882812 42.04882812 C6.36583978 42.03699545 3.18294238 42.02051068 0 42 C0.33 41.01 0.66 40.02 1 39 C1.09684514 36.3879222 1.13998109 33.80335834 1.1328125 31.19140625 C1.13376923 30.42827621 1.13472595 29.66514618 1.13571167 28.87889099 C1.13639174 27.26585813 1.13454951 25.65282252 1.13037109 24.03979492 C1.12502774 21.57529521 1.13031811 19.11097836 1.13671875 16.64648438 C1.13605779 15.0781246 1.13477627 13.50976494 1.1328125 11.94140625 C1.13483673 11.20588028 1.13686096 10.47035431 1.13894653 9.71253967 C1.12305553 6.2303036 0.85214164 3.40856656 0 0 Z " fill="#F1F0EC" transform="translate(106,175)"/>
<path d="M0 0 C5.24359741 2.88235013 8.04374768 5.94999602 11.0625 11.125 C12.79169509 18.04178037 12.33137187 23.91914895 8.91796875 30.18359375 C7.75 31.875 7.75 31.875 6.17578125 33.41015625 C4.49012883 34.92946849 4.49012883 34.92946849 3.75 37.875 C-0.177005 40.02944861 -3.76480288 40.17309382 -8.1875 40.1875 C-9.37214844 40.20425781 -10.55679688 40.22101563 -11.77734375 40.23828125 C-18.62623695 39.52180536 -22.54282992 36.17198313 -26.765625 31.04296875 C-30.48855324 25.60553408 -30.77382095 19.75008455 -29.90625 13.33203125 C-28.2619566 7.17571845 -24.23422694 3.18661387 -18.9375 -0.125 C-12.14974089 -3.46212572 -6.81691546 -3.11053328 0 0 Z " fill="#F1F0EC" transform="translate(191.25,116.125)"/>
<path d="M0 0 C4.52071021 -0.08751499 9.0412007 -0.1405661 13.5625 -0.1875 C15.47772461 -0.22520508 15.47772461 -0.22520508 17.43164062 -0.26367188 C27.09425217 -0.33896495 33.23564098 0.69413825 40.48828125 7.34375 C44.83738831 12.10866316 45.50066716 17.39389888 45.28515625 23.578125 C44.53782033 29.92536155 41.38150274 34.51660185 37 39 C31.42773838 42.76504164 26.0893644 42.35015175 19.625 42.1875 C18.09166016 42.16719727 18.09166016 42.16719727 16.52734375 42.14648438 C14.01767951 42.11130217 11.5091191 42.06207539 9 42 C9.33 41.01 9.66 40.02 10 39 C10.08507079 36.2684044 10.11591565 33.56308557 10.09765625 30.83203125 C10.0962413 30.03721848 10.09482635 29.2424057 10.09336853 28.42350769 C10.08777378 25.88646675 10.07522228 23.34951425 10.0625 20.8125 C10.05748432 19.09179815 10.05292153 17.37109492 10.04882812 15.65039062 C10.03780607 11.4335597 10.02054506 7.21679484 10 3 C8.68 3 7.36 3 6 3 C5.98018066 3.85231201 5.96036133 4.70462402 5.93994141 5.58276367 C5.86160496 8.76058324 5.77490335 11.93803582 5.68261719 15.11547852 C5.64445712 16.48778581 5.60958204 17.86018871 5.578125 19.23266602 C5.53219318 21.2113229 5.47326363 23.18966442 5.4140625 25.16796875 C5.3826416 26.35672607 5.3512207 27.5454834 5.31884766 28.77026367 C5.0100289 31.89841328 4.3293088 34.17113759 3 37 C1.86547667 33.59643001 2.28041321 32.43232705 3 29 C3.0793925 26.86971994 3.10775926 24.73720378 3.09765625 22.60546875 C3.09443359 21.40341797 3.09121094 20.20136719 3.08789062 18.96289062 C3.07951172 17.71701172 3.07113281 16.47113281 3.0625 15.1875 C3.05798828 13.92228516 3.05347656 12.65707031 3.04882812 11.35351562 C3.03706251 8.2356289 3.02062272 5.11783867 3 2 C2.01 1.67 1.02 1.34 0 1 C0 0.67 0 0.34 0 0 Z " fill="#EFEEEA" transform="translate(109,114)"/>
<path d="M0 0 C0.33 0.66 0.66 1.32 1 2 C1.66 2 2.32 2 3 2 C3 2.66 3 3.32 3 4 C4.32 4 5.64 4 7 4 C7.33 4 7.66 4 8 4 C8.43127197 3.51249268 8.86254395 3.02498535 9.30688477 2.52270508 C11.39302663 0.64653106 12.3256635 0.62516098 15.08984375 0.63671875 C16.26643555 0.63768555 16.26643555 0.63768555 17.46679688 0.63867188 C18.28212891 0.65478516 19.09746094 0.67089844 19.9375 0.6875 C20.74896484 0.68427734 21.56042969 0.68105469 22.39648438 0.67773438 C26.55468922 0.71525714 29.31672006 0.91828124 33 3 C32.67 3.66 32.34 4.32 32 5 C32.66 5 33.32 5 34 5 C36.61734539 9.56195944 36.79430893 13.85320232 36 19 C34.64468168 21.79464397 33.43129281 22.89287957 31 25 C28.1875 25.875 28.1875 25.875 26 26 C26 26.66 26 27.32 26 28 C24.02 28 22.04 28 20 28 C20.495 35.425 20.495 35.425 21 43 C18.03 43 15.06 43 12 43 C12 39.04 12 35.08 12 31 C8.91107317 31.64306304 8.91107317 31.64306304 8.03125 33.86328125 C7.6909375 34.56839844 7.350625 35.27351563 7 36 C5.34375 37.66796875 5.34375 37.66796875 3.5 39.1875 C2.8915625 39.69667969 2.283125 40.20585937 1.65625 40.73046875 C-3.12000961 44.3915168 -9.25716638 43.36507011 -15 43 C-21.58882033 41.04775694 -25.96511121 35.36199018 -29.4375 29.625 C-30.86956333 22.94203782 -30.7789468 16.84338041 -27.3359375 10.82421875 C-24.32941223 6.71881729 -20.97622592 3.58866304 -16.0625 2.125 C-15.381875 2.08375 -14.70125 2.0425 -14 2 C-14.39832031 2.42410156 -14.79664063 2.84820312 -15.20703125 3.28515625 C-20.74065779 9.41119049 -23.64196786 14.98072116 -23.34765625 23.375 C-22.57154672 29.23506299 -20.58189616 34.90317371 -16.3125 39.125 C-12.01046697 41.56011304 -8.83131335 41.91777637 -4 41 C-0.13716975 39.21165266 1.55785764 37.67795162 3.875 34.125 C6.15641832 27.79987015 6.17557142 19.80331929 4.203125 13.421875 C2.17586907 9.21142037 -0.09777633 5.92540611 -4.3125 3.875 C-7.19669679 2.93595918 -9.99918182 2.41871882 -13 2 C-13 1.67 -13 1.34 -13 1 C-11.56260487 0.97287934 -10.12506137 0.95354933 -8.6875 0.9375 C-7.48673828 0.92009766 -7.48673828 0.92009766 -6.26171875 0.90234375 C-4 1 -4 1 -1 2 C-0.67 1.34 -0.34 0.68 0 0 Z " fill="#C7C6C3" transform="translate(198,174)"/>
<path d="M0 0 C8.58 0 17.16 0 26 0 C26.99 2.31 27.98 4.62 29 7 C29.66 7 30.32 7 31 7 C31 6.34 31 5.68 31 5 C35.0188515 3.18757677 38.61110675 1.66498383 43 1 C41.625 2.5 41.625 2.5 40 4 C39.34 4 38.68 4 38 4 C33.87572702 11.95395503 32.12104449 19.8579426 34.828125 28.70703125 C35.79240469 30.87666056 36.83637201 32.93179989 38 35 C38.3403125 35.72574219 38.680625 36.45148438 39.03125 37.19921875 C39.83188069 39.11987234 39.83188069 39.11987234 41.625 39.75 C48.07159395 40.42858884 52.4203054 40.59580319 58 37 C60.81356892 34.43802877 60.81356892 34.43802877 63 32 C63 33.65 63 35.3 63 37 C56.20554235 41.80416197 50.27714567 43.34462286 42 42 C35.70290449 39.92946181 32.08513401 36.596385 28.875 30.8671875 C26.96211761 26.78523311 26.86569232 23.46768484 26.875 19 C26.87113281 17.14375 26.87113281 17.14375 26.8671875 15.25 C27 12 27 12 28 9 C27.34 9 26.68 9 26 9 C24.75453595 11.49092811 25.2232422 12.41080733 26 15 C25.01 15.33 24.02 15.66 23 16 C21.97718482 18.09719872 21.97718482 18.09719872 21.3125 20.5625 C21.06113281 21.38878906 20.80976562 22.21507812 20.55078125 23.06640625 C20.36902344 23.70449219 20.18726562 24.34257812 20 25 C19.34 25 18.68 25 18 25 C17.67 24.34 17.34 23.68 17 23 C14.64400765 22.53248212 14.64400765 22.53248212 11.9375 22.375 C9.4934375 22.189375 9.4934375 22.189375 7 22 C7 28.27 7 34.54 7 41 C16.98109551 40.76244073 16.98109551 40.76244073 26 37 C26.99 36.505 26.99 36.505 28 36 C28.042721 37.66611905 28.04063832 39.33382885 28 41 C27 42 27 42 24.40795898 42.11352539 C23.28204346 42.10828857 22.15612793 42.10305176 20.99609375 42.09765625 C19.78115234 42.09443359 18.56621094 42.09121094 17.31445312 42.08789062 C16.03505859 42.07951172 14.75566406 42.07113281 13.4375 42.0625 C12.15423828 42.05798828 10.87097656 42.05347656 9.54882812 42.04882812 C6.36583978 42.03699545 3.18294238 42.02051068 0 42 C0.33 41.01 0.66 40.02 1 39 C1.09684514 36.3879222 1.13998109 33.80335834 1.1328125 31.19140625 C1.13376923 30.42827621 1.13472595 29.66514618 1.13571167 28.87889099 C1.13639174 27.26585813 1.13454951 25.65282252 1.13037109 24.03979492 C1.12502774 21.57529521 1.13031811 19.11097836 1.13671875 16.64648438 C1.13605779 15.0781246 1.13477627 13.50976494 1.1328125 11.94140625 C1.13483673 11.20588028 1.13686096 10.47035431 1.13894653 9.71253967 C1.12305553 6.2303036 0.85214164 3.40856656 0 0 Z " fill="#EFEEEA" transform="translate(106,175)"/>
<path d="M0 0 C2 1.375 2 1.375 4 3 C4 3.66 4 4.32 4 5 C4.55429687 5.22945312 5.10859375 5.45890625 5.6796875 5.6953125 C8.64672489 7.36364665 10.72709523 9.46277938 13.125 11.875 C13.99382813 12.73867187 14.86265625 13.60234375 15.7578125 14.4921875 C19.90458423 19.13021442 20.39319338 22.44048784 20.25 28.53515625 C19.63780208 34.57104512 16.30874008 38.03142361 12 42 C11.67 42.33 11.34 42.66 11 43 C4.49320275 43.80048472 -0.89907474 43.56045523 -6.2734375 39.6015625 C-11.00414963 35.21334537 -13.28237738 30.99276028 -13.75 24.5 C-13.49732394 19.15664451 -11.70062608 16.24099728 -7.94140625 12.52734375 C-4.03152138 9.45135787 -0.87732625 9 4 9 C3.34 7.35 2.68 5.7 2 4 C1.01 4.33 0.02 4.66 -1 5 C-0.67 3.35 -0.34 1.7 0 0 Z " fill="#F0EFEB" transform="translate(27,130)"/>
<path d="M0 0 C2.97 0 5.94 0 9 0 C8.67 0.99 8.34 1.98 8 3 C7.68530593 7.62002768 7.67597496 12.24554649 7.625 16.875 C7.58761719 18.15503906 7.55023438 19.43507812 7.51171875 20.75390625 C7.22937877 27.06616297 7.22937877 27.06616297 9.08032227 32.93554688 C10.5218799 34.46425797 10.5218799 34.46425797 13 36 C13.556875 36.5775 14.11375 37.155 14.6875 37.75 C17.25963297 40.19965045 19.44131121 40.18886607 22.875 40.25 C23.73867188 40.27578125 24.60234375 40.3015625 25.4921875 40.328125 C28.50593868 39.93380242 29.82618436 39.09512548 32 37 C33.00076997 34.0882504 33.00076997 34.0882504 32 31 C28.8721049 28.14070531 24.91338024 26.46108741 21.16015625 24.56640625 C11.29715627 19.46941968 11.29715627 19.46941968 9 14 C8.38857402 10.96085322 8.54258123 9.20193142 9 6 C11.5 3 11.5 3 14 1 C14.66 1.33 15.32 1.66 16 2 C15.505 2.391875 15.01 2.78375 14.5 3.1875 C12.77203875 4.93242941 12.77203875 4.93242941 12.75 7.5 C12.92002433 10.12717443 12.92002433 10.12717443 14 13 C15.74969459 14.09260857 15.74969459 14.09260857 18 15 C19.98132214 15.95386898 21.9603141 16.91258669 23.9375 17.875 C25.46697266 18.61363281 25.46697266 18.61363281 27.02734375 19.3671875 C34.13586957 23.27173913 34.13586957 23.27173913 36 27 C36.54399285 31.539219 36.62289461 34.9544269 34.25 38.9375 C30.56339756 42.31688557 27.8691733 43.26949389 22.875 43.1875 C22.00617188 43.18105469 21.13734375 43.17460937 20.2421875 43.16796875 C18 43 18 43 16 42 C14.28691157 42.09325169 12.57690895 42.24648714 10.87109375 42.4296875 C-5.59340553 43.71774405 -5.59340553 43.71774405 -10.01123047 40.56445312 C-13.53483759 36.47955381 -17 30.50241654 -17 25 C-16.071875 24.5875 -15.14375 24.175 -14.1875 23.75 C-10.9885457 21.99371137 -9.82892407 21.06086995 -8 18 C-7.60237889 15.54876183 -7.60237889 15.54876183 -7.75 13 C-7.76546875 12.154375 -7.7809375 11.30875 -7.796875 10.4375 C-7.98487981 8.18144231 -8.37669908 6.17149996 -9 4 C-9.66 4 -10.32 4 -11 4 C-11 3.34 -11 2.68 -11 2 C-7.27226686 2.21301332 -5.99900741 3.00090436 -3.1875 5.5625 C-0.25616254 9.40930248 -0.39965749 12.2723027 -1 17 C-2.50705199 20.76762999 -3.63008361 21.78965539 -7.1875 23.8125 C-8.115625 24.204375 -9.04375 24.59625 -10 25 C-9.33651854 28.76570556 -7.64297659 31.53145505 -5.625 34.75 C-5.01914063 35.73484375 -4.41328125 36.7196875 -3.7890625 37.734375 C-2.90347656 38.85585937 -2.90347656 38.85585937 -2 40 C-1.01 40 -0.02 40 1 40 C1.02470935 34.78556667 1.04286444 29.57116739 1.05493164 24.35668945 C1.059962 22.58259487 1.06678699 20.80850444 1.07543945 19.03442383 C1.08756174 16.48517839 1.09324126 13.93598774 1.09765625 11.38671875 C1.10281754 10.59287277 1.10797882 9.79902679 1.11329651 8.98112488 C1.11362877 5.72343714 1.03772826 3.11318479 0 0 Z " fill="#32312E" transform="translate(241,175)"/>
<path d="M0 0 C13.53 0 27.06 0 41 0 C40.67 0.99 40.34 1.98 40 3 C39.90526672 4.98260678 39.86927809 6.96825733 39.8671875 8.953125 C39.86589844 10.13003906 39.86460938 11.30695313 39.86328125 12.51953125 C39.86908203 14.36611328 39.86908203 14.36611328 39.875 16.25 C39.87113281 17.46558594 39.86726563 18.68117187 39.86328125 19.93359375 C39.69284513 28.54867027 39.69284513 28.54867027 41 37 C43.8743894 39.37790396 46.86869645 39.26995222 50.5 39.25 C51.90765625 39.25773437 51.90765625 39.25773437 53.34375 39.265625 C56.04047676 38.99595232 57.68949293 38.3732259 60 37 C59 40 59 40 57.30859375 41.16796875 C54.4594157 42.19482988 52.08909431 42.30105008 49.0625 42.3125 C48.04285156 42.32925781 47.02320313 42.34601563 45.97265625 42.36328125 C41.73563129 41.84548451 39.08837434 40.20498587 36.25 37.0625 C33.94710867 33.26272931 33.87904177 29.74014737 33.90234375 25.359375 C33.90556641 24.28945312 33.90878906 23.21953125 33.91210938 22.1171875 C33.92467773 20.45042969 33.92467773 20.45042969 33.9375 18.75 C33.94201172 17.62335938 33.94652344 16.49671875 33.95117188 15.3359375 C33.96294603 12.55723783 33.9793916 9.77864591 34 7 C33.34 7 32.68 7 32 7 C31.34 6.01 30.68 5.02 30 4 C27.35308332 3.19907746 27.35308332 3.19907746 24.375 2.8125 C22.87066406 2.57466797 22.87066406 2.57466797 21.3359375 2.33203125 C20.56507812 2.22246094 19.79421875 2.11289063 19 2 C19.11807628 7.37531833 19.24231206 12.75044513 19.37231445 18.12548828 C19.41568565 19.95487575 19.45735911 21.78430427 19.49731445 23.61376953 C19.55496418 26.24003486 19.61867365 28.8660931 19.68359375 31.4921875 C19.70030624 32.31306854 19.71701874 33.13394958 19.73423767 33.97970581 C19.7431387 38.1233696 19.7431387 38.1233696 21 42 C18.03 42 15.06 42 12 42 C12.33 40.68 12.66 39.36 13 38 C13.15082384 35.23890155 13.25618708 32.49738071 13.31640625 29.734375 C13.33718735 28.94097717 13.35796844 28.14757935 13.37937927 27.33013916 C13.44459973 24.80351156 13.50363144 22.27678279 13.5625 19.75 C13.6057114 18.03384384 13.64932653 16.31769778 13.69335938 14.6015625 C13.80025283 10.40114454 13.90159729 6.20062511 14 2 C12.39763216 2.11278711 10.79621221 2.23909477 9.1953125 2.37109375 C8.30344238 2.43997803 7.41157227 2.5088623 6.49267578 2.57983398 C3.15827562 3.14188126 1.32245899 4.60012571 -1 7 C-0.67 4.69 -0.34 2.38 0 0 Z " fill="#282628" transform="translate(51,114)"/>
<path d="M0 0 C7.45848898 0.37292445 12.48760932 5.13371198 17.3125 10.4375 C23.44425812 18.15649796 23.99082211 25.27893422 23 35 C20.64933113 43.83396528 14.59346287 49.32156316 7 54 C4.17588235 54.94137255 2.47081968 55.11725382 -0.44921875 55.09765625 C-1.29677734 55.09443359 -2.14433594 55.09121094 -3.01757812 55.08789062 C-4.33918945 55.07532227 -4.33918945 55.07532227 -5.6875 55.0625 C-6.58017578 55.05798828 -7.47285156 55.05347656 -8.39257812 55.04882812 C-10.59511987 55.03704983 -12.79752599 55.02060164 -15 55 C-14.67 54.34 -14.34 53.68 -14 53 C-13.9009111 50.17914471 -13.86017752 47.38350992 -13.8671875 44.5625 C-13.86623077 43.72662354 -13.86527405 42.89074707 -13.86428833 42.02954102 C-13.86360732 40.26090418 -13.86545609 38.49226485 -13.86962891 36.72363281 C-13.87497829 34.01101079 -13.86968125 31.29855435 -13.86328125 28.5859375 C-13.86394205 26.8697913 -13.86522324 25.1536452 -13.8671875 23.4375 C-13.86516327 22.62289307 -13.86313904 21.80828613 -13.86105347 20.96899414 C-13.77409175 16.85240837 -13.77409175 16.85240837 -15 13 C-12.03 13 -9.06 13 -6 13 C-6.33 26.53 -6.66 40.06 -7 54 C3.15665138 53.0407958 3.15665138 53.0407958 10.6875 47.3125 C16.89063212 39.0483272 16.92480735 29.90724472 16 20 C15.01896244 16.43379591 13.66784248 13.28879783 12 10 C11.67 9.01 11.34 8.02 11 7 C9.28480253 5.97348627 9.28480253 5.97348627 7 5 C4.65044852 3.69413341 2.32847143 2.3433489 0 1 C0 0.67 0 0.34 0 0 Z " fill="#2E2C2A" transform="translate(84,162)"/>
<path d="M0 0 C4.52071021 -0.08751499 9.0412007 -0.1405661 13.5625 -0.1875 C15.47772461 -0.22520508 15.47772461 -0.22520508 17.43164062 -0.26367188 C27.09425217 -0.33896495 33.23564098 0.69413825 40.48828125 7.34375 C44.83738831 12.10866316 45.50066716 17.39389888 45.28515625 23.578125 C44.53782033 29.92536155 41.38150274 34.51660185 37 39 C31.42773838 42.76504164 26.0893644 42.35015175 19.625 42.1875 C18.09166016 42.16719727 18.09166016 42.16719727 16.52734375 42.14648438 C14.01767951 42.11130217 11.5091191 42.06207539 9 42 C9.33 41.01 9.66 40.02 10 39 C10.08507079 36.2684044 10.11591565 33.56308557 10.09765625 30.83203125 C10.0962413 30.03721848 10.09482635 29.2424057 10.09336853 28.42350769 C10.08777378 25.88646675 10.07522228 23.34951425 10.0625 20.8125 C10.05748432 19.09179815 10.05292153 17.37109492 10.04882812 15.65039062 C10.03780607 11.4335597 10.02054506 7.21679484 10 3 C8.68 3 7.36 3 6 3 C5.98018066 3.85231201 5.96036133 4.70462402 5.93994141 5.58276367 C5.86160496 8.76058324 5.77490335 11.93803582 5.68261719 15.11547852 C5.64445712 16.48778581 5.60958204 17.86018871 5.578125 19.23266602 C5.53219318 21.2113229 5.47326363 23.18966442 5.4140625 25.16796875 C5.3826416 26.35672607 5.3512207 27.5454834 5.31884766 28.77026367 C5.0100289 31.89841328 4.3293088 34.17113759 3 37 C1.86547667 33.59643001 2.28041321 32.43232705 3 29 C3.0793925 26.86971994 3.10775926 24.73720378 3.09765625 22.60546875 C3.09443359 21.40341797 3.09121094 20.20136719 3.08789062 18.96289062 C3.07951172 17.71701172 3.07113281 16.47113281 3.0625 15.1875 C3.05798828 13.92228516 3.05347656 12.65707031 3.04882812 11.35351562 C3.03706251 8.2356289 3.02062272 5.11783867 3 2 C2.01 1.67 1.02 1.34 0 1 C0 0.67 0 0.34 0 0 Z M16 2 C15.91134792 4.8843382 15.88478704 7.74462158 15.90234375 10.62890625 C15.9037587 11.49313705 15.90517365 12.35736786 15.90663147 13.24778748 C15.91224761 16.01939292 15.92480281 18.7909188 15.9375 21.5625 C15.94251292 23.4368478 15.94707619 25.31119685 15.95117188 27.18554688 C15.96222228 31.79039544 15.9794977 36.39518421 16 41 C17.41266419 41.02556087 18.82546531 41.04360782 20.23828125 41.05859375 C21.02501221 41.06947021 21.81174316 41.08034668 22.62231445 41.09155273 C27.53710807 40.9023087 31.15314622 39.6538989 34.83203125 36.359375 C38.74841781 31.55331749 39.55251284 26.8979365 39.625 20.8125 C39.63595703 20.13550049 39.64691406 19.45850098 39.65820312 18.76098633 C39.49347827 12.96934555 37.33241513 9.51137282 33.47265625 5.35546875 C29.7350092 2.25974446 20.37306648 -2.37306648 16 2 Z " fill="#2D2A28" transform="translate(109,114)"/>
<path d="M0 0 C7.39658692 -0.58703071 12.00434827 0.55273988 18 5 C22.91900472 9.57192166 25.06082246 14.17423267 25.375 20.8125 C25.20651887 27.12118217 23.45316732 31.49835111 19.0234375 36.015625 C12.86985292 41.52028612 9.50172758 42.31266014 1.1953125 42.203125 C-4.88150704 41.81682351 -7.76001378 39.44069938 -11.75 35.125 C-16.21324934 29.68633856 -17.48609908 25.58571666 -17.30859375 18.55859375 C-16.49500561 11.81302121 -12.96398752 7.26756227 -7.75 3.12109375 C-5.54893688 1.71103769 -3.60380632 1.15780644 -1 1 C-1.39832031 1.42410156 -1.79664063 1.84820312 -2.20703125 2.28515625 C-7.74065779 8.41119049 -10.64196786 13.98072116 -10.34765625 22.375 C-9.57154672 28.23506299 -7.58189616 33.90317371 -3.3125 38.125 C0.98953303 40.56011304 4.16868665 40.91777637 9 40 C12.86283025 38.21165266 14.55785764 36.67795162 16.875 33.125 C19.15641832 26.79987015 19.17557142 18.80331929 17.203125 12.421875 C15.17586907 8.21142037 12.90222367 4.92540611 8.6875 2.875 C5.80330321 1.93595918 3.00081818 1.41871882 0 1 C0 0.67 0 0.34 0 0 Z " fill="#363533" transform="translate(185,175)"/>
<path d="M0 0 C0.33 0 0.66 0 1 0 C1.09796875 0.72445312 1.1959375 1.44890625 1.296875 2.1953125 C1.44640625 3.16210938 1.5959375 4.12890625 1.75 5.125 C1.88921875 6.07632813 2.0284375 7.02765625 2.171875 8.0078125 C3.38465099 12.38982385 5.04063496 15.66688129 8.88671875 18.28369141 C11.1009887 19.51892049 13.34066308 20.64999212 15.625 21.75 C17.16036861 22.51258341 18.69429436 23.27808074 20.2265625 24.046875 C20.90283691 24.37526367 21.57911133 24.70365234 22.27587891 25.04199219 C24 26 24 26 26 28 C26.4375 30.875 26.4375 30.875 26 34 C23.80842061 36.77600056 22.13122904 37.83495183 18.6171875 38.34765625 C13.6458377 38.51831453 9.91827955 38.34206197 6 35 C3.6875 32.3125 3.6875 32.3125 2 30 C1.505 32.475 1.505 32.475 1 35 C0.67 35 0.34 35 0 35 C0 23.45 0 11.9 0 0 Z " fill="#EFEEEA" transform="translate(248,178)"/>
<path d="M0 0 C5.24359741 2.88235013 8.04374768 5.94999602 11.0625 11.125 C12.73080357 17.79821427 12.51225339 23.99583513 9.10546875 30.046875 C6.77487687 33.19015166 3.87798596 35.55536997 0.75 37.875 C0.09 37.545 -0.57 37.215 -1.25 36.875 C-0.63125 36.153125 -0.0125 35.43125 0.625 34.6875 C5.83269282 27.79496538 5.60281957 20.15702093 4.75 11.875 C3.12629447 7.20597553 0.56153626 4.58068371 -3.125 1.375 C-6.91008555 -0.44184106 -9.09575095 -0.71846415 -13.25 -0.125 C-17.63785053 2.15330701 -20.16807106 4.38241649 -22.25 8.875 C-24.53847252 16.36454644 -23.6225729 23.56316684 -20.5234375 30.640625 C-17.87361793 35.29000167 -13.99377531 37.58490158 -9.25 39.875 C-14.68942361 39.96313881 -18.39869186 39.25393847 -22.625 35.6875 C-28.15621828 30.24425338 -29.81476967 25.20729136 -30.3125 17.5546875 C-30.1609926 11.05880753 -26.70621538 6.33121538 -22.25 1.875 C-14.9906011 -3.25582242 -8.01794129 -3.6758811 0 0 Z " fill="#2D2C29" transform="translate(191.25,116.125)"/>
<path d="M0 0 C30.36 0 60.72 0 92 0 C92 1.32 92 2.64 92 4 C61.64 4 31.28 4 0 4 C0 2.68 0 1.36 0 0 Z " fill="#1B1919" transform="translate(236,224)"/>
<path d="M0 0 C3.72773314 0.21301332 5.00099259 1.00090436 7.8125 3.5625 C10.74383746 7.40930248 10.60034251 10.2723027 10 15 C8.49294801 18.76762999 7.36991639 19.78965539 3.8125 21.8125 C2.884375 22.204375 1.95625 22.59625 1 23 C1.66348146 26.76570556 3.35702341 29.53145505 5.375 32.75 C5.98085937 33.73484375 6.58671875 34.7196875 7.2109375 35.734375 C8.09652344 36.85585937 8.09652344 36.85585937 9 38 C9.99 38 10.98 38 12 38 C12.33 26.78 12.66 15.56 13 4 C14.32 4.33 15.64 4.66 17 5 C17.33 16.55 17.66 28.1 18 40 C3 40 3 40 -0.43359375 36.7890625 C-1.51757812 34.765625 -1.51757812 34.765625 -2.4375 32.625 C-2.79908203 31.92632812 -3.16066406 31.22765625 -3.53320312 30.5078125 C-6 25.62120536 -6 25.62120536 -6 23 C-5.071875 22.5875 -4.14375 22.175 -3.1875 21.75 C0.0114543 19.99371137 1.17107593 19.06086995 3 16 C3.39762111 13.54876183 3.39762111 13.54876183 3.25 11 C3.23453125 10.154375 3.2190625 9.30875 3.203125 8.4375 C3.01512019 6.18144231 2.62330092 4.17149996 2 2 C1.34 2 0.68 2 0 2 C0 1.34 0 0.68 0 0 Z " fill="#3F3D3D" transform="translate(230,177)"/>
<path d="M0 0 C10 0 10 0 14 2 C16.85490325 6.25043103 16.78342542 11.07450353 16 16 C14.31712073 19.12177233 12.2172593 21.39137035 9 23 C6.03 23 3.06 23 0 23 C0 15.41 0 7.82 0 0 Z " fill="#F1F0ED" transform="translate(218,177)"/>
<path d="M0 0 C1.34136367 0.65035814 2.67532254 1.3162955 4 2 C7.16695956 2.16724737 7.16695956 2.16724737 10 2 C10.05391993 3.79133978 10.09275571 5.58313899 10.125 7.375 C10.14820313 8.37273437 10.17140625 9.37046875 10.1953125 10.3984375 C10 13 10 13 8 15 C6.01178687 15.39764263 4.01055661 15.73775349 2 16 C2 16.99 2 17.98 2 19 C2.66 19.33 3.32 19.66 4 20 C-2.16308934 20 -6.27872591 17.3985352 -11 13.5625 C-13 11 -13 11 -13.5625 8.5 C-12.81803461 5.19126491 -11.30813268 3.44390519 -9 1 C-5.97562661 -0.5121867 -3.33758466 -0.17263369 0 0 Z " fill="#F1F0EB" transform="translate(266,174)"/>
<path d="M0 0 C4.31248609 -0.02886537 8.62494762 -0.04675255 12.9375 -0.0625 C14.16919922 -0.07087891 15.40089844 -0.07925781 16.66992188 -0.08789062 C17.83974609 -0.09111328 19.00957031 -0.09433594 20.21484375 -0.09765625 C21.84087524 -0.10551147 21.84087524 -0.10551147 23.49975586 -0.11352539 C26 0 26 0 27 1 C27.04063832 2.66617115 27.042721 4.33388095 27 6 C25.9275 5.360625 24.855 4.72125 23.75 4.0625 C18.01921221 1.272344 18.01921221 1.272344 7 1 C7 14.2 7 27.4 7 41 C17.69988819 40.76759875 17.69988819 40.76759875 26 37 C26.99 36.505 26.99 36.505 28 36 C28.042721 37.66611905 28.04063832 39.33382885 28 41 C27 42 27 42 24.40795898 42.11352539 C23.28204346 42.10828857 22.15612793 42.10305176 20.99609375 42.09765625 C19.78115234 42.09443359 18.56621094 42.09121094 17.31445312 42.08789062 C16.03505859 42.07951172 14.75566406 42.07113281 13.4375 42.0625 C12.15423828 42.05798828 10.87097656 42.05347656 9.54882812 42.04882812 C6.36583978 42.03699545 3.18294238 42.02051068 0 42 C0.33 41.01 0.66 40.02 1 39 C1.09684514 36.3879222 1.13998109 33.80335834 1.1328125 31.19140625 C1.13376923 30.42827621 1.13472595 29.66514618 1.13571167 28.87889099 C1.13639174 27.26585813 1.13454951 25.65282252 1.13037109 24.03979492 C1.12502774 21.57529521 1.13031811 19.11097836 1.13671875 16.64648438 C1.13605779 15.0781246 1.13477627 13.50976494 1.1328125 11.94140625 C1.13483673 11.20588028 1.13686096 10.47035431 1.13894653 9.71253967 C1.12353553 6.33548728 1.05561551 3.22817078 0 0 Z " fill="#2C2B28" transform="translate(106,175)"/>
<path d="M0 0 C1.61301773 3.22603545 1.12053599 6.74710038 1.09765625 10.2890625 C1.0962413 11.10748627 1.09482635 11.92591003 1.09336853 12.76913452 C1.0877629 15.38779325 1.07520948 18.00636704 1.0625 20.625 C1.05748572 22.39843627 1.05292269 24.17187387 1.04882812 25.9453125 C1.03779164 30.29690782 1.02052325 34.6484395 1 39 C-0.98 39.495 -0.98 39.495 -3 40 C-4.1254191 38.39612733 -5.25031972 36.79189084 -6.375 35.1875 C-7.31472656 33.84751953 -7.31472656 33.84751953 -8.2734375 32.48046875 C-12 27.12669683 -12 27.12669683 -12 24.9375 C-11 23 -11 23 -8.0625 22.0625 C-4.89495953 21.31531979 -4.89495953 21.31531979 -3.625 18.875 C-2.51535716 13.77064294 -1.91027884 9.75133757 -4.75 5.1875 C-6.74332407 3.24954604 -8.70159052 1.559635 -11 0 C-6.58108537 -1.84977822 -4.25232356 -2.42989918 0 0 Z " fill="#F2F1EE" transform="translate(242,176)"/>
<path d="M0 0 C0.66 0 1.32 0 2 0 C2.02578125 0.59167969 2.0515625 1.18335937 2.078125 1.79296875 C2.13484375 2.58316406 2.1915625 3.37335938 2.25 4.1875 C2.29640625 4.96480469 2.3428125 5.74210937 2.390625 6.54296875 C3.22720078 9.91608521 4.51238727 11.57785076 7 14 C10.23486197 15.23675755 10.23486197 15.23675755 13.75 15.8125 C14.92046875 16.04582031 16.0909375 16.27914062 17.296875 16.51953125 C18.63492188 16.75736328 18.63492188 16.75736328 20 17 C19.67 17.66 19.34 18.32 19 19 C17.07360715 19.34098028 15.13210046 19.59852341 13.1875 19.8125 C8.34537765 20.53276823 8.34537765 20.53276823 4.3125 23.1875 C2.77480972 26.48255059 2.2833474 29.38732061 2 33 C1.34 33 0.68 33 0 33 C-0.06316406 32.39671875 -0.12632812 31.7934375 -0.19140625 31.171875 C-0.90592689 26.50868769 -1.2791614 24.56225411 -5.125 21.5625 C-8.94107051 19.80309065 -12.8996691 18.86322756 -17 18 C-14.07270113 16.35297763 -11.75480427 15.79112127 -8.4375 15.4375 C-6.05528029 15.04769 -6.05528029 15.04769 -4 14 C-2.23070651 11.1554767 -1.6032245 8.26981502 -1 5 C-0.773125 3.989375 -0.54625 2.97875 -0.3125 1.9375 C-0.209375 1.298125 -0.10625 0.65875 0 0 Z " fill="#181513" transform="translate(249,105)"/>
<path d="M0 0 C0.66 0.33 1.32 0.66 2 1 C1.67 1.33 1.34 1.66 1 2 C0.50460594 6.0639852 0.50460594 6.0639852 1 10 C3.1006926 12.48386038 3.1006926 12.48386038 6 15 C7.22159162 16.11302069 8.44292997 17.2263194 9.6640625 18.33984375 C11.65220545 20.14778649 13.64197377 21.95262238 15.6484375 23.74023438 C20.58821002 28.26012623 23.66072168 31.99496349 24.4375 38.875 C24.18903432 44.77041297 21.67804215 49.32195785 17.5625 53.4375 C14.95948831 55.02470225 13.01090819 55.65589621 10 56 C10.763125 55.46375 11.52625 54.9275 12.3125 54.375 C15.93733168 51.17166038 17.67191587 48.45662994 18.3203125 43.6015625 C18.58138785 37.80568983 17.91737405 34.4906483 14 30 C11.06340641 26.93191715 8.05434084 23.95052604 5 21 C3.30758523 19.35332617 1.64582479 17.6942314 0 16 C-0.598125 15.401875 -1.19625 14.80375 -1.8125 14.1875 C-3.61650517 10.86433257 -3.59106999 7.69797637 -3 4 C-1.5 1.5 -1.5 1.5 0 0 Z " fill="#343331" transform="translate(28,115)"/>
<path d="M0 0 C0.99 0.33 1.98 0.66 3 1 C2.21625 1.2475 1.4325 1.495 0.625 1.75 C-2.43098307 3.20523003 -2.85025533 3.90453358 -4 7 C-4.33902344 7.74121094 -4.67804688 8.48242188 -5.02734375 9.24609375 C-7.3717122 15.88376345 -6.97356805 23.65322189 -4.125 30.0625 C-3.43876148 31.38668618 -2.73132179 32.70016893 -2 34 C-1.6596875 34.72574219 -1.319375 35.45148438 -0.96875 36.19921875 C-0.16811931 38.11987234 -0.16811931 38.11987234 1.625 38.75 C8.07159395 39.42858884 12.4203054 39.59580319 18 36 C20.81356892 33.43802877 20.81356892 33.43802877 23 31 C23 32.65 23 34.3 23 36 C16.20554235 40.80416197 10.27714567 42.34462286 2 41 C-4.29709551 38.92946181 -7.91486599 35.596385 -11.125 29.8671875 C-13.82400039 24.10771346 -13.84126389 17.92992549 -12 11.875 C-9.81104743 6.5982496 -5.05611598 2.52805799 0 0 Z " fill="#2D2C2A" transform="translate(146,176)"/>
<path d="M0 0 C2.97 0 5.94 0 9 0 C8.67 0.99 8.34 1.98 8 3 C7.90289231 5.78076115 7.86004055 8.53572615 7.8671875 11.31640625 C7.86575241 12.53480446 7.86575241 12.53480446 7.86428833 13.77781677 C7.86360827 15.49339882 7.86545045 17.20898345 7.86962891 18.92456055 C7.87498653 21.5558853 7.86967451 24.18703989 7.86328125 26.81835938 C7.86394193 28.48437538 7.86522287 30.15039127 7.8671875 31.81640625 C7.86516327 32.60600235 7.86313904 33.39559845 7.86105347 34.2091217 C7.78604431 38.23495867 7.78604431 38.23495867 9 42 C6.03 42 3.06 42 0 42 C0.33 41.34 0.66 40.68 1 40 C1.09901946 37.26351313 1.13982822 34.55304218 1.1328125 31.81640625 C1.13376923 31.0050975 1.13472595 30.19378876 1.13571167 29.3578949 C1.13639271 27.64053266 1.13454372 25.92316785 1.13037109 24.20581055 C1.12502865 21.57660124 1.13031507 18.9475633 1.13671875 16.31835938 C1.13605782 14.65104129 1.13477635 12.98372331 1.1328125 11.31640625 C1.13483673 10.52883438 1.13686096 9.74126251 1.13894653 8.92982483 C1.12504608 5.69264047 1.03104833 3.093145 0 0 Z " fill="#252524" transform="translate(153,114)"/>
<path d="M0 0 C2.97 0 5.94 0 9 0 C8.67 1.32 8.34 2.64 8 4 C7.84861775 6.90668312 7.74356343 9.79458636 7.68359375 12.703125 C7.66281265 13.54091492 7.64203156 14.37870483 7.62062073 15.24188232 C7.5553745 17.91117356 7.49635642 20.58056098 7.4375 23.25 C7.39429106 25.06250984 7.35067601 26.87501005 7.30664062 28.6875 C7.19971871 33.12490209 7.09838134 37.56240068 7 42 C4.69 42 2.38 42 0 42 C0.33 41.34 0.66 40.68 1 40 C1.0990889 37.17914471 1.13982248 34.38350992 1.1328125 31.5625 C1.13376923 30.72662354 1.13472595 29.89074707 1.13571167 29.02954102 C1.13639268 27.26090418 1.13454391 25.49226485 1.13037109 23.72363281 C1.12502171 21.01101079 1.13031875 18.29855435 1.13671875 15.5859375 C1.13605795 13.8697913 1.13477676 12.1536452 1.1328125 10.4375 C1.13483673 9.62289307 1.13686096 8.80828613 1.13894653 7.96899414 C1.22590825 3.85240837 1.22590825 3.85240837 0 0 Z " fill="#2E2D2A" transform="translate(69,175)"/>
<path d="M0 0 C2.28615516 3.42923274 3.69026057 6.99591728 5.1875 10.80859375 C5.49067139 11.57172379 5.79384277 12.33485382 6.10620117 13.12110901 C7.07408606 15.55861873 8.03734366 17.99792111 9 20.4375 C9.96324128 22.87326872 10.9274945 25.30862407 11.89379883 27.74317932 C12.49451739 29.25717807 13.0933907 30.77191062 13.69018555 32.28746033 C15.00744657 35.61204665 16.39857299 38.79714597 18 42 C14.7 42 11.4 42 8 42 C8.21333984 41.31156006 8.42667969 40.62312012 8.64648438 39.91381836 C9.10856244 36.10518455 8.10942197 33.91791528 6.65625 30.37890625 C6.1471257 29.10091533 5.63801142 27.82292042 5.12890625 26.54492188 C4.31622682 24.55103377 3.49865334 22.55922789 2.67919922 20.56811523 C1.88862823 18.63467955 1.11577616 16.69480574 0.34375 14.75390625 C-0.12869141 13.60220947 -0.60113281 12.4505127 -1.08789062 11.26391602 C-2.26592 7.04842493 -1.95634745 3.9126949 0 0 Z " fill="#302F2D" transform="translate(295,175)"/>
<path d="M0 0 C1.98 0 3.96 0 6 0 C6.02505615 1.09989258 6.0501123 2.19978516 6.07592773 3.33300781 C6.17018206 7.41824765 6.27035865 11.50332461 6.37231445 15.58837891 C6.41559514 17.35559272 6.45727505 19.1228465 6.49731445 20.89013672 C6.55518351 23.4320886 6.61882981 25.97384059 6.68359375 28.515625 C6.70030624 29.30430969 6.71701874 30.09299438 6.73423767 30.90557861 C6.83040294 34.47571118 7.12848515 37.51394061 8 41 C5.03 41 2.06 41 -1 41 C-0.67 40.34 -0.34 39.68 0 39 C0.08698228 36.08300726 0.11551923 33.19017452 0.09765625 30.2734375 C0.0962413 29.41062164 0.09482635 28.54780579 0.09336853 27.65884399 C0.08776188 24.8975277 0.07520827 22.13629188 0.0625 19.375 C0.05748586 17.5052095 0.0529228 15.63541774 0.04882812 13.765625 C0.03779029 9.17705223 0.0205212 4.58853977 0 0 Z " fill="#232220" transform="translate(211,176)"/>
<path d="M0 0 C1.65 0 3.3 0 5 0 C5.02505615 1.17095215 5.0501123 2.3419043 5.07592773 3.54833984 C5.16993703 7.88325378 5.27017341 12.21800504 5.37231445 16.55273438 C5.41568789 18.43062542 5.45736118 20.30855652 5.49731445 22.18652344 C5.55495876 24.8822844 5.61866981 27.57784327 5.68359375 30.2734375 C5.70030624 31.11619232 5.71701874 31.95894714 5.73423767 32.82723999 C5.73236144 37.0486661 5.73236144 37.0486661 7 41 C4.03 41 1.06 41 -2 41 C-1.67 39.68 -1.34 38.36 -1 37 C-0.84889043 34.16611169 -0.74368466 31.35139452 -0.68359375 28.515625 C-0.66281265 27.70003113 -0.64203156 26.88443726 -0.62062073 26.04412842 C-0.55538703 23.44616895 -0.49636232 20.84811087 -0.4375 18.25 C-0.39428986 16.485667 -0.35067478 14.72134387 -0.30664062 12.95703125 C-0.19973255 8.63812116 -0.09839173 4.31911216 0 0 Z " fill="#22211F" transform="translate(65,115)"/>
<path d="M0 0 C1.98 0 3.96 0 6 0 C6 13.53 6 27.06 6 41 C3.69 41 1.38 41 -1 41 C-0.67 40.01 -0.34 39.02 0 38 C0.0853013 35.12305329 0.11585645 32.27099818 0.09765625 29.39453125 C0.0962413 28.55532639 0.09482635 27.71612152 0.09336853 26.85148621 C0.08777215 24.17178784 0.07522035 21.4921731 0.0625 18.8125 C0.05748453 16.99544392 0.05292171 15.17838652 0.04882812 13.36132812 C0.03780391 8.90751987 0.02054178 4.45377411 0 0 Z " fill="#292825" transform="translate(119,115)"/>
<path d="M0 0 C0.99 0.33 1.98 0.66 3 1 C2.236875 1.556875 1.47375 2.11375 0.6875 2.6875 C-3.7664357 6.5199563 -5.62227189 10.4704095 -6.23828125 16.2265625 C-6.42123734 22.13893295 -5.38653809 26.41897782 -2.875 31.7734375 C-2 34 -2 34 -2 38 C-6.9317655 36.17342019 -9.73258751 32.17270713 -12.3125 27.75 C-13.98051759 21.07792962 -13.76858622 14.86908785 -10.34765625 8.82421875 C-7.61568305 5.12615648 -4.11698261 2.0584913 0 0 Z " fill="#31302C" transform="translate(181,176)"/>
<path d="M0 0 C1.05445312 -0.01417969 2.10890625 -0.02835938 3.1953125 -0.04296875 C5.875 0.1875 5.875 0.1875 7.875 2.1875 C6.8128125 2.21328125 5.750625 2.2390625 4.65625 2.265625 C-4.74676908 2.59910481 -11.26727697 3.3465097 -18.8125 9.3125 C-24.09071892 15.87461001 -26.91802184 21.99537662 -26.484375 30.51171875 C-25.63669019 36.82328503 -23.91399334 42.77658509 -19.125 47.1875 C-16.19816487 48.72687349 -13.21229588 50.00667529 -10.125 51.1875 C-10.455 51.8475 -10.785 52.5075 -11.125 53.1875 C-19.61481263 50.30959741 -23.84595014 47.30926129 -28.109375 39.30859375 C-31.34529746 32.55049416 -31.04396292 24.4849552 -29.0625 17.375 C-23.84392607 8.78960419 -17.86356924 3.67771169 -8.20703125 0.5703125 C-5.45235132 0.06382351 -2.7996751 0.01719702 0 0 Z " fill="#2B2A26" transform="translate(76.125,159.8125)"/>
<path d="M0 0 C2.97 0 5.94 0 9 0 C8.67 0.99 8.34 1.98 8 3 C7.68530593 7.62002768 7.67597496 12.24554649 7.625 16.875 C7.58761719 18.15503906 7.55023438 19.43507812 7.51171875 20.75390625 C7.22937877 27.06616297 7.22937877 27.06616297 9.08032227 32.93554688 C10.5218799 34.46425797 10.5218799 34.46425797 13 36 C13.8353125 36.86625 13.8353125 36.86625 14.6875 37.75 C17.85063374 40.76250832 21.37853374 40.25830082 25.51171875 40.234375 C28.61758902 39.94182835 30.5757777 38.93937784 33 37 C33 37.99 33 38.98 33 40 C29.08856108 43.52029502 25.18901637 43.29275592 20.20703125 43.203125 C18 43 18 43 16 42 C14.45976004 41.93049459 12.91665012 41.91547643 11.375 41.9375 C10.55773437 41.94652344 9.74046875 41.95554688 8.8984375 41.96484375 C8.27195313 41.97644531 7.64546875 41.98804688 7 42 C5.5349199 39.0698398 5.79676056 36.3972581 5.71875 33.12890625 C5.70034058 32.45077377 5.68193115 31.7726413 5.66296387 31.07395935 C5.60417924 28.90356156 5.551389 26.73308475 5.5 24.5625 C5.43228921 21.70947098 5.35858606 18.85668872 5.28125 16.00390625 C5.25095703 14.73361572 5.22066406 13.4633252 5.18945312 12.15454102 C5.13496245 8.97357709 5.13496245 8.97357709 4 6 C3.34 6 2.68 6 2 6 C1.34 4.02 0.68 2.04 0 0 Z " fill="#373536" transform="translate(241,175)"/>
<path d="M0 0 C1.65 0 3.3 0 5 0 C8.34233278 5.29202691 8.82847897 9.91821119 8 16 C6.11587759 22.34769813 2.21468865 26.13292752 -3 30 C-3.66 29.67 -4.32 29.34 -5 29 C-4.38125 28.278125 -3.7625 27.55625 -3.125 26.8125 C0.7245173 21.71755063 1.25691052 17.79171779 1.1875 11.4375 C1.18105469 10.13683594 1.17460937 8.83617187 1.16796875 7.49609375 C1.03722463 4.77479165 0.81823822 2.57254097 0 0 Z " fill="#33322E" transform="translate(195,124)"/>
<path d="M0 0 C1.32 0.33 2.64 0.66 4 1 C4.33 12.55 4.66 24.1 5 36 C4.01 36 3.02 36 2 36 C2 35.34 2 34.68 2 34 C1.34 34 0.68 34 0 34 C0 22.78 0 11.56 0 0 Z " fill="#242322" transform="translate(243,181)"/>
<path d="M0 0 C0.33 0 0.66 0 1 0 C1.02468084 5.09032841 1.04285082 10.18062215 1.05493164 15.27099609 C1.05996682 17.00342414 1.06679532 18.73584792 1.07543945 20.46826172 C1.08754065 22.95541433 1.09323638 25.44251087 1.09765625 27.9296875 C1.10281754 28.70682098 1.10797882 29.48395447 1.11329651 30.28463745 C1.11387171 35.77225659 1.11387171 35.77225659 0 38 C7.59 38 15.18 38 23 38 C22.67 38.66 22.34 39.32 22 40 C18.12506384 40.05834395 14.25024164 40.09371201 10.375 40.125 C9.28058594 40.14175781 8.18617187 40.15851563 7.05859375 40.17578125 C-2.98079979 40.23662606 -2.98079979 40.23662606 -8 38 C-7.34 37.01 -6.68 36.02 -6 35 C-6.33 34.34 -6.66 33.68 -7 33 C-6.3125 30.4375 -6.3125 30.4375 -5 28 C-3.68 27.67 -2.36 27.34 -1 27 C-0.67 18.09 -0.34 9.18 0 0 Z " fill="#E1E0DD" transform="translate(119,117)"/>
<path d="M0 0 C2.31 0 4.62 0 7 0 C9.4375 3 9.4375 3 11 6 C10.67 6.66 10.34 7.32 10 8 C9.01 8 8.02 8 7 8 C6.9175 8.763125 6.835 9.52625 6.75 10.3125 C5.81915984 13.64801058 4.95864213 14.28078903 2 16 C-0.796875 16.29296875 -0.796875 16.29296875 -3.75 16.1875 C-5.22726563 16.14689453 -5.22726563 16.14689453 -6.734375 16.10546875 C-7.48203125 16.07066406 -8.2296875 16.03585938 -9 16 C-8.67 15.34 -8.34 14.68 -8 14 C-5.36 14 -2.72 14 0 14 C0 9.38 0 4.76 0 0 Z " fill="#EBEAE7" transform="translate(218,202)"/>
<path d="M0 0 C0.33 0 0.66 0 1 0 C1 11.55 1 23.1 1 35 C0.34 35 -0.32 35 -1 35 C-1.9590625 35.2475 -1.9590625 35.2475 -2.9375 35.5 C-5 36 -5 36 -8 36 C-8 35.34 -8 34.68 -8 34 C-7.34 34 -6.68 34 -6 34 C-6 33.34 -6 32.68 -6 32 C-7.65 32.66 -9.3 33.32 -11 34 C-10.34 33.01 -9.68 32.02 -9 31 C-8.34 31 -7.68 31 -7 31 C-6.71382813 30.41863281 -6.42765625 29.83726562 -6.1328125 29.23828125 C-5.43614736 27.86176702 -4.70792652 26.500064 -3.9296875 25.16796875 C-0.59880693 18.91331524 -0.69895451 13.163109 -0.95703125 6.2578125 C-1 3 -1 3 0 0 Z " fill="#F3F2EF" transform="translate(107,179)"/>
<path d="M0 0 C0.33 0 0.66 0 1 0 C1 12.21 1 24.42 1 37 C11.15665138 36.0407958 11.15665138 36.0407958 18.6875 30.3125 C21.38795081 26.85418074 22.64224433 23.14472782 24 19 C24.33 20.32 24.66 21.64 25 23 C25.99 23 26.98 23 28 23 C27.5225699 27.29687087 25.13244022 29.20804241 22 32 C14.08073885 38.19994787 11.48158521 38 0 38 C0 25.46 0 12.92 0 0 Z " fill="#676663" transform="translate(76,179)"/>
<path d="M0 0 C4.31248609 -0.02886537 8.62494762 -0.04675255 12.9375 -0.0625 C14.16919922 -0.07087891 15.40089844 -0.07925781 16.66992188 -0.08789062 C17.83974609 -0.09111328 19.00957031 -0.09433594 20.21484375 -0.09765625 C21.84087524 -0.10551147 21.84087524 -0.10551147 23.49975586 -0.11352539 C26 0 26 0 27 1 C27.04063832 2.66617115 27.042721 4.33388095 27 6 C25.9275 5.360625 24.855 4.72125 23.75 4.0625 C18.31701693 1.2971507 13.02444537 1.27383843 7 1 C7 7.27 7 13.54 7 20 C6.67 20 6.34 20 6 20 C5.67 15.71 5.34 11.42 5 7 C3.60096525 8.16767614 3.60096525 8.16767614 3.9375 11.421875 C3.96157681 13.58878781 4.00009324 15.7551842 4.0390625 17.921875 C4.08136037 21.75688186 3.93891519 25.27368035 3 29 C2.67 29 2.34 29 2 29 C1.97494385 28.26362305 1.9498877 27.52724609 1.92407227 26.76855469 C1.80795727 23.42886622 1.68530082 20.08944903 1.5625 16.75 C1.52318359 15.59113281 1.48386719 14.43226563 1.44335938 13.23828125 C1.40146484 12.12324219 1.35957031 11.00820312 1.31640625 9.859375 C1.27974854 8.83295898 1.24309082 7.80654297 1.20532227 6.74902344 C1.02717872 4.36389113 0.67222637 2.28700501 0 0 Z " fill="#2F2E2C" transform="translate(106,175)"/>
<path d="M0 0 C-1.6396875 0.7734375 -1.6396875 0.7734375 -3.3125 1.5625 C-7.42568933 3.92716755 -8.67484369 6.40092811 -10 11 C-10.58432171 16.45366934 -9.59584291 20.17914889 -7 25 C-3.83167249 28.00271039 -1.01535562 28.58478671 3.25 29.1875 C4.86648437 29.42533203 4.86648437 29.42533203 6.515625 29.66796875 C7.74539062 29.83232422 7.74539062 29.83232422 9 30 C9 30.33 9 30.66 9 31 C-2.61285351 31.75599046 -2.61285351 31.75599046 -7.49609375 28.37890625 C-12.12536188 24.13440846 -14.30506094 19.79021694 -14.75 13.5 C-14.51602038 8.08073001 -12.5363861 5.27427503 -8.82421875 1.4609375 C-5.69579295 -1.04448273 -3.67717306 -1.14119164 0 0 Z " fill="#474642" transform="translate(28,141)"/>
<path d="M0 0 C0.99 0.33 1.98 0.66 3 1 C4.16796875 3.3984375 4.16796875 3.3984375 5.1875 6.375 C5.53167969 7.35210937 5.87585938 8.32921875 6.23046875 9.3359375 C7 12 7 12 7 15 C3.04 15 -0.92 15 -5 15 C-1.85714286 4.28571429 -1.85714286 4.28571429 0 0 Z " fill="#F1F0EC" transform="translate(292,185)"/>
<path d="M0 0 C0.66 0.33 1.32 0.66 2 1 C2 1.66 2 2.32 2 3 C1.34 3 0.68 3 0 3 C-0.12246094 3.71542969 -0.24492187 4.43085938 -0.37109375 5.16796875 C-1.37130433 9.67202262 -3.23938673 13.74045176 -5 18 C1.435 17.505 1.435 17.505 8 17 C8 17.66 8 18.32 8 19 C3.38 19 -1.24 19 -6 19 C-6.474375 20.546875 -6.94875 22.09375 -7.4375 23.6875 C-7.70433594 24.55761719 -7.97117187 25.42773438 -8.24609375 26.32421875 C-8.96344529 28.87025921 -9.517541 31.4003423 -10 34 C-9.34 34.33 -8.68 34.66 -8 35 C-10.31 35 -12.62 35 -15 35 C-14.525625 34.4225 -14.05125 33.845 -13.5625 33.25 C-12.0515133 31.07417916 -11.45963849 29.57397552 -11 27 C-12.32 27 -13.64 27 -15 27 C-14.67 25.68 -14.34 24.36 -14 23 C-14 23.66 -14 24.32 -14 25 C-11.98567734 24.49743888 -11.98567734 24.49743888 -10 23 C-9.30643577 20.67451993 -8.63850788 18.34119555 -8 16 C-7.01 15.67 -6.02 15.34 -5 15 C-4.87753906 14.28457031 -4.75507813 13.56914062 -4.62890625 12.83203125 C-3.98864625 9.94887287 -3.06448444 7.41407527 -1.9375 4.6875 C-1.39416016 3.36298828 -1.39416016 3.36298828 -0.83984375 2.01171875 C-0.56269531 1.34785156 -0.28554688 0.68398437 0 0 Z " fill="#ABAAA7" transform="translate(292,182)"/>
<path d="M0 0 C0.66 0.33 1.32 0.66 2 1 C1.505 1.391875 1.01 1.78375 0.5 2.1875 C-1.22796125 3.93242941 -1.22796125 3.93242941 -1.25 6.5 C-1.07997567 9.12717443 -1.07997567 9.12717443 0 12 C1.69769234 13.10168984 1.69769234 13.10168984 4 14 C4.60070312 14.26039063 5.20140625 14.52078125 5.8203125 14.7890625 C7.5429003 15.53528474 9.27109245 16.26853911 11 17 C8 18 8 18 5 18 C4.67 18.99 4.34 19.98 4 21 C0.57542144 20.04872818 -0.93431491 19.07456145 -3.3125 16.375 C-5.5233715 11.953257 -5.70010555 9.90073887 -5 5 C-2.5 2 -2.5 2 0 0 Z " fill="#363533" transform="translate(255,176)"/>
<path d="M0 0 C7.45848898 0.37292445 12.48760932 5.13371198 17.3125 10.4375 C23.61235514 18.36810783 23.37115243 25.08885542 23 35 C22.67 35 22.34 35 22 35 C21.95101562 34.08476562 21.90203125 33.16953125 21.8515625 32.2265625 C21.77679688 31.03804687 21.70203125 29.84953125 21.625 28.625 C21.55539063 27.44164062 21.48578125 26.25828125 21.4140625 25.0390625 C21.29782654 21.89437681 21.29782654 21.89437681 19 20 C18.01 20 17.02 20 16 20 C15.35309078 18.3962669 14.70751236 16.79199694 14.0625 15.1875 C13.70285156 14.29417969 13.34320313 13.40085938 12.97265625 12.48046875 C12.26386514 10.6729091 11.6139753 8.84192591 11 7 C9.28480253 5.97348627 9.28480253 5.97348627 7 5 C4.65044852 3.69413341 2.32847143 2.3433489 0 1 C0 0.67 0 0.34 0 0 Z " fill="#353431" transform="translate(84,162)"/>
<path d="M0 0 C13.53 0 27.06 0 41 0 C40.67 0.66 40.34 1.32 40 2 C38.02 2 36.04 2 34 2 C34 3.65 34 5.3 34 7 C33.34 7 32.68 7 32 7 C31.34 6.01 30.68 5.02 30 4 C22.01840542 1.05387469 12.21599487 1.34921119 4 3 C1.10255551 4.91300247 1.10255551 4.91300247 -1 7 C-0.67 4.69 -0.34 2.38 0 0 Z " fill="#71706C" transform="translate(51,114)"/>
<path d="M0 0 C1.98 0 3.96 0 6 0 C6.02505615 1.09989258 6.0501123 2.19978516 6.07592773 3.33300781 C6.17018206 7.41824765 6.27035865 11.50332461 6.37231445 15.58837891 C6.41559514 17.35559272 6.45727505 19.1228465 6.49731445 20.89013672 C6.55518351 23.4320886 6.61882981 25.97384059 6.68359375 28.515625 C6.70030624 29.30430969 6.71701874 30.09299438 6.73423767 30.90557861 C6.83040294 34.47571118 7.12848515 37.51394061 8 41 C5.03 41 2.06 41 -1 41 C-0.67 40.34 -0.34 39.68 0 39 C0.2322646 36.28737884 0.41936235 33.59226874 0.5625 30.875 C0.60568359 30.12089844 0.64886719 29.36679688 0.69335938 28.58984375 C0.7994832 26.72678112 0.90025001 24.86341476 1 23 C1.33 23 1.66 23 2 23 C2 26.3 2 29.6 2 33 C2.66 33 3.32 33 4 33 C3.99476318 32.20827393 3.98952637 31.41654785 3.98413086 30.60083008 C3.96331063 27.00472816 3.95032373 23.40863895 3.9375 19.8125 C3.92912109 18.56662109 3.92074219 17.32074219 3.91210938 16.03710938 C3.90888672 14.83505859 3.90566406 13.63300781 3.90234375 12.39453125 C3.89710693 11.28956299 3.89187012 10.18459473 3.88647461 9.04614258 C3.99098077 6.24200621 4.35902041 3.72582671 5 1 C3.35 1 1.7 1 0 1 C0 0.67 0 0.34 0 0 Z " fill="#2F2E2C" transform="translate(211,176)"/>
<path d="M0 0 C0.66 0 1.32 0 2 0 C2.66 1.65 3.32 3.3 4 5 C6.31 5.33 8.62 5.66 11 6 C9 8 9 8 6.5 8.9375 C3.69808253 9.8583474 3.69808253 9.8583474 2 13 C1.34 13 0.68 13 0 13 C-0.66 12.01 -1.32 11.02 -2 10 C-3.94832935 8.99831469 -3.94832935 8.99831469 -6.125 8.3125 C-6.84945313 8.06113281 -7.57390625 7.80976563 -8.3203125 7.55078125 C-8.87460937 7.36902344 -9.42890625 7.18726563 -10 7 C-9.443125 6.731875 -8.88625 6.46375 -8.3125 6.1875 C-3.37424914 3.93288201 -3.37424914 3.93288201 0 0 Z " fill="#2C2825" transform="translate(267,138)"/>
<path d="M0 0 C0.66 0.66 1.32 1.32 2 2 C0.9378125 2.02578125 -0.124375 2.0515625 -1.21875 2.078125 C-10.65238685 2.41269068 -17.32483138 3.0686082 -24.75 9.3125 C-27.3325005 12.39715337 -29.11984014 15.44858692 -31 19 C-31.99 19 -32.98 19 -34 19 C-34 14.41981777 -31.52468348 11.67798046 -28.5625 8.41796875 C-20.79313528 1.04080754 -10.51152583 -1.45102925 0 0 Z " fill="#6B6A66" transform="translate(82,160)"/>
<path d="M0 0 C0.33 0 0.66 0 1 0 C2.76915323 23.46169355 2.76915323 23.46169355 0 29 C-0.66 29 -1.32 29 -2 29 C-2.33 29.66 -2.66 30.32 -3 31 C-3.07007072 27.56653488 -3.05422778 24.33214513 -2.5 20.9375 C-1.86872562 15.96621429 -2.02594077 11.11292817 -2.16015625 6.109375 C-2 3 -2 3 0 0 Z " fill="#21211F" transform="translate(111,180)"/>
<path d="M0 0 C0.33 0 0.66 0 1 0 C1.02505615 1.17095215 1.0501123 2.3419043 1.07592773 3.54833984 C1.16993703 7.88325378 1.27017341 12.21800504 1.37231445 16.55273438 C1.41568789 18.43062542 1.45736118 20.30855652 1.49731445 22.18652344 C1.55495876 24.8822844 1.61866981 27.57784327 1.68359375 30.2734375 C1.70030624 31.11619232 1.71701874 31.95894714 1.73423767 32.82723999 C1.73236144 37.0486661 1.73236144 37.0486661 3 41 C0.03 41 -2.94 41 -6 41 C-5.34 38.03 -4.68 35.06 -4 32 C-3.34 32 -2.68 32 -2 32 C-0.55037817 29.10075634 -0.77873519 26.47699645 -0.68359375 23.2421875 C-0.66281265 22.57913605 -0.64203156 21.91608459 -0.62062073 21.23294067 C-0.55520769 19.11373306 -0.49627895 16.994401 -0.4375 14.875 C-0.39430691 13.43878919 -0.35069236 12.00259098 -0.30664062 10.56640625 C-0.19953501 7.04440406 -0.09824425 3.52226175 0 0 Z " fill="#383735" transform="translate(69,115)"/>
<path d="M0 0 C0.2475 0.61875 0.495 1.2375 0.75 1.875 C1.80482295 4.13468978 1.80482295 4.13468978 3.9296875 4.875 C6.48962851 6.26606229 7.07580573 7.5542539 8.375 10.125 C9.55143394 12.27995716 9.55143394 12.27995716 11 14 C14.2140814 14.67012422 14.2140814 14.67012422 17 14 C17 14.66 17 15.32 17 16 C12.79189556 16.74626483 9.17280159 17.03672089 5 16 C1.61924851 12.47225931 -0.58202042 8.67812067 -2 4 C-1.1640625 1.609375 -1.1640625 1.609375 0 0 Z " fill="#363531" transform="translate(228,201)"/>
<path d="M0 0 C9.24 0 18.48 0 28 0 C23.68862015 2.15568992 21.71919397 2.18747865 17 2.0625 C13.08635788 1.96714643 9.76399012 1.95393466 6 3 C5.98018066 3.85231201 5.96036133 4.70462402 5.93994141 5.58276367 C5.86160496 8.76058324 5.77490335 11.93803582 5.68261719 15.11547852 C5.64445712 16.48778581 5.60958204 17.86018871 5.578125 19.23266602 C5.53219318 21.2113229 5.47326363 23.18966442 5.4140625 25.16796875 C5.3826416 26.35672607 5.3512207 27.5454834 5.31884766 28.77026367 C5.0100289 31.89841328 4.3293088 34.17113759 3 37 C1.86547667 33.59643001 2.28041321 32.43232705 3 29 C3.0793925 26.86971994 3.10775926 24.73720378 3.09765625 22.60546875 C3.09443359 21.40341797 3.09121094 20.20136719 3.08789062 18.96289062 C3.07951172 17.71701172 3.07113281 16.47113281 3.0625 15.1875 C3.05798828 13.92228516 3.05347656 12.65707031 3.04882812 11.35351562 C3.03706251 8.2356289 3.02062272 5.11783867 3 2 C2.01 1.67 1.02 1.34 0 1 C0 0.67 0 0.34 0 0 Z " fill="#797875" transform="translate(109,114)"/>
<path d="M0 0 C2.97 0 5.94 0 9 0 C8.67 0.99 8.34 1.98 8 3 C7.90289231 5.78076115 7.86004055 8.53572615 7.8671875 11.31640625 C7.86575241 12.53480446 7.86575241 12.53480446 7.86428833 13.77781677 C7.86360827 15.49339882 7.86545045 17.20898345 7.86962891 18.92456055 C7.87498653 21.5558853 7.86967451 24.18703989 7.86328125 26.81835938 C7.86394193 28.48437538 7.86522287 30.15039127 7.8671875 31.81640625 C7.86516327 32.60600235 7.86313904 33.39559845 7.86105347 34.2091217 C7.78604431 38.23495867 7.78604431 38.23495867 9 42 C6.03 42 3.06 42 0 42 C0.33 41.34 0.66 40.68 1 40 C1.99 40 2.98 40 4 40 C5.03987597 35.75054147 5.12989631 31.64072144 5.09765625 27.29296875 C5.09553383 26.20487663 5.09553383 26.20487663 5.09336853 25.09480286 C5.08779931 22.7923255 5.07525261 20.48994765 5.0625 18.1875 C5.05748102 16.62044412 5.05291881 15.0533867 5.04882812 13.48632812 C5.03783998 9.65751411 5.02059673 5.82877389 5 2 C3.35 2 1.7 2 0 2 C0 1.34 0 0.68 0 0 Z " fill="#302F2E" transform="translate(153,114)"/>
<path d="M0 0 C3.78399199 2.0597157 6.35571495 4.10284197 8.6875 7.8125 C6 8.1875 6 8.1875 2.6875 7.8125 C0.0625 4.9375 0.0625 4.9375 -2.3125 1.8125 C-5.81039656 -0.75262414 -9.07313537 -0.67398447 -13.3125 -0.1875 C-16.46600501 1.24542711 -19.35942264 3.0111774 -22.3125 4.8125 C-23.63891402 5.49282939 -24.97020055 6.16407544 -26.3125 6.8125 C-19.97709446 -2.69060831 -10.06727536 -4.6714523 0 0 Z " fill="#5E5D59" transform="translate(191.3125,116.1875)"/>
<path d="M0 0 C6.54188826 0.11681943 9.60092683 1.75347802 14.43359375 6.11328125 C16.11753624 8.14157108 16.78904272 9.3765569 17 12 C16.34 12.66 15.68 13.32 15 14 C14.53709779 16.66242821 14.53709779 16.66242821 14.375 19.625 C14.30023438 20.62789062 14.22546875 21.63078125 14.1484375 22.6640625 C14.09945312 23.43492187 14.05046875 24.20578125 14 25 C13.67 25 13.34 25 13 25 C12.96132812 23.69675781 12.96132812 23.69675781 12.921875 22.3671875 C12.59295935 13.4329858 12.59295935 13.4329858 8 6 C5.43415478 3.74706274 2.84091885 1.8939459 0 0 Z " fill="#423E3B" transform="translate(135,115)"/>
<path d="M0 0 C0.33 0.99 0.66 1.98 1 3 C1.66 3 2.32 3 3 3 C3 2.01 3 1.02 3 0 C3.66 0 4.32 0 5 0 C3.63924722 5.6131052 -0.62621194 8.61031425 -5 12 C-7.80497823 13.40248912 -10.18501365 13.16979056 -13.3125 13.1875 C-14.44300781 13.20167969 -15.57351562 13.21585938 -16.73828125 13.23046875 C-19.93204843 13.00480137 -22.1276429 12.36342654 -25 11 C-24.34 9.68 -23.68 8.36 -23 7 C-22.360625 7.66 -21.72125 8.32 -21.0625 9 C-16.94305391 11.69025051 -13.79464211 11.82024742 -9 11 C-4.89272985 9.09848604 -2.90945342 7.32284969 -1.125 3.25 C-0.75375 2.1775 -0.3825 1.105 0 0 Z " fill="#3D3C3A" transform="translate(203,204)"/>
<path d="M0 0 C0.33 0 0.66 0 1 0 C1 12.21 1 24.42 1 37 C0.67 37 0.34 37 0 37 C0 35.35 0 33.7 0 32 C-2.88437779 33.29299694 -4.87219421 34.65941363 -7 37 C-7.99 36.67 -8.98 36.34 -10 36 C-9.236875 35.443125 -8.47375 34.88625 -7.6875 34.3125 C-3.92591691 31.07578897 -1.93365901 27.84983986 -1 23 C-0.95593122 21.14635711 -0.96050608 19.29124601 -1 17.4375 C-1.0577589 11.56775149 -0.64277412 5.83087947 0 0 Z " fill="#D7D6D5" transform="translate(154,117)"/>
<path d="M0 0 C0.66 0.33 1.32 0.66 2 1 C4.09821215 0.60061233 4.09821215 0.60061233 6 0 C3.06448755 5.25945981 -0.17204458 9.00554415 -6 11 C-11.04176752 11.40354573 -15.95606256 11.29554321 -21 11 C-21 10.67 -21 10.34 -21 10 C-20.11957031 9.89042969 -19.23914063 9.78085938 -18.33203125 9.66796875 C-17.17058594 9.50941406 -16.00914062 9.35085937 -14.8125 9.1875 C-13.66394531 9.03667969 -12.51539063 8.88585937 -11.33203125 8.73046875 C-6.64168001 7.70222059 -3.88406729 6.31085839 -1.1875 2.3125 C-0.795625 1.549375 -0.40375 0.78625 0 0 Z " fill="#4A4845" transform="translate(146,145)"/>
<path d="M0 0 C0.66 0.33 1.32 0.66 2 1 C1.65066406 1.556875 1.30132812 2.11375 0.94140625 2.6875 C-2.18639304 7.93298776 -3.6671297 11.89737784 -4 18 C-4.99 17.67 -5.98 17.34 -7 17 C-8.56935594 13.86128812 -8.35201103 11.46144178 -8 8 C-5.6875 5.25 -5.6875 5.25 -3 3 C-2.401875 2.401875 -1.80375 1.80375 -1.1875 1.1875 C-0.795625 0.795625 -0.40375 0.40375 0 0 Z " fill="#302F2B" transform="translate(170,119)"/>
<path d="M0 0 C1.66666667 0 3.33333333 0 5 0 C4.7438709 2.08519216 4.46951265 4.1681505 4.1875 6.25 C4.03667969 7.41015625 3.88585937 8.5703125 3.73046875 9.765625 C3.00362557 12.98394666 2.18338975 14.58331655 0 17 C0 16.34 0 15.68 0 15 C-0.99 15.33 -1.98 15.66 -3 16 C-2.40746887 10.76597499 -1.80463807 7.80463807 2 4 C1.34 2.68 0.68 1.36 0 0 Z " fill="#F5F4F2" transform="translate(129,184)"/>
<path d="M0 0 C0.33 0 0.66 0 1 0 C1 1.65 1 3.3 1 5 C-5.83059237 9.82971178 -11.68712146 11.13196644 -20 10 C-22.35162724 9.22926183 -23.92619701 8.38253533 -26 7 C-26 5.35 -26 3.7 -26 2 C-24 3.375 -24 3.375 -22 5 C-22 5.66 -22 6.32 -22 7 C-16.83407243 8.72197586 -11.79361927 8.65536089 -6.75 6.8125 C-3.80216929 4.86961158 -2.06901389 2.83531533 0 0 Z " fill="#5D5C59" transform="translate(168,207)"/>
<path d="M0 0 C7.38728409 -0.58629239 12.01694266 0.54453177 18 5 C20.00992959 6.91622658 21.40882908 8.69023577 23 11 C23 11.66 23 12.32 23 13 C22.34 13 21.68 13 21 13 C21 12.01 21 11.02 21 10 C19.02 10.99 19.02 10.99 17 12 C16.38125 11.05125 15.7625 10.1025 15.125 9.125 C12.36218632 5.06203871 10.59431571 3.56624399 6 2 C4.0075675 1.62406934 2.0081326 1.28020455 0 1 C0 0.67 0 0.34 0 0 Z " fill="#3A3936" transform="translate(185,175)"/>
<path d="M0 0 C1.65 0 3.3 0 5 0 C7.20914 3.31371 7.22481553 4.3446021 7.125 8.1875 C7.10695312 9.08855469 7.08890625 9.98960937 7.0703125 10.91796875 C7.03550781 11.94857422 7.03550781 11.94857422 7 13 C5.66666667 13 4.33333333 13 3 13 C2.01 8.71 1.02 4.42 0 0 Z " fill="#292824" transform="translate(195,124)"/>
<path d="M0 0 C3.96 0 7.92 0 12 0 C12 0.33 12 0.66 12 1 C8.37 1 4.74 1 1 1 C1 6.94 1 12.88 1 19 C2.44375 18.855625 3.8875 18.71125 5.375 18.5625 C6.18710938 18.48128906 6.99921875 18.40007812 7.8359375 18.31640625 C10.04272805 18.10909886 10.04272805 18.10909886 12 17 C12 18.65 12 20.3 12 22 C8.04 21.67 4.08 21.34 0 21 C0 14.07 0 7.14 0 0 Z " fill="#C5C4C0" transform="translate(113,176)"/>
<path d="M0 0 C1.17718385 2.3543677 1.07026819 3.69940169 1 6.3125 C0.956432 9.68901986 1.15081132 12.70939388 2 16 C1.01 16 0.02 16 -1 16 C-1.99 16.33 -2.98 16.66 -4 17 C-5.33583899 12.15758367 -6.25328119 8.06562383 -6 3 C-5.01 4.485 -5.01 4.485 -4 6 C-3.01904252 7.01868662 -2.02297922 8.02351983 -1 9 C-1.020625 7.700625 -1.04125 6.40125 -1.0625 5.0625 C-1.08399454 3.70834367 -1.07148199 2.35243917 -1 1 C-0.67 0.67 -0.34 0.34 0 0 Z " fill="#363433" transform="translate(167,128)"/>
<path d="M0 0 C0.33 0 0.66 0 1 0 C1 12.54 1 25.08 1 38 C0.67 38 0.34 38 0 38 C-0.33 34.7 -0.66 31.4 -1 28 C-1.66 28.33 -2.32 28.66 -3 29 C-2.86722656 28.41476563 -2.73445312 27.82953125 -2.59765625 27.2265625 C-0.74162667 18.20382017 -0.38366803 9.17774304 0 0 Z " fill="#D6D5D3" transform="translate(211,177)"/>
<path d="M0 0 C3.72 1.44 3.72 1.44 4.875 3.75 C5.0455723 6.82030146 4.09788947 9.15840374 3 12 C1.68 12 0.36 12 -1 12 C-1.02687279 10.18757948 -1.04633715 8.37504767 -1.0625 6.5625 C-1.07410156 5.55316406 -1.08570313 4.54382813 -1.09765625 3.50390625 C-1 1 -1 1 0 0 Z " fill="#F5F4F2" transform="translate(250,192)"/>
<path d="M0 0 C6.2669206 -0.34183203 11.20300225 0.55181496 17 3 C18 4 18 4 18.0625 7.0625 C18.041875 8.031875 18.02125 9.00125 18 10 C17.46890625 9.59007812 16.9378125 9.18015625 16.390625 8.7578125 C15.68421875 8.21898437 14.9778125 7.68015625 14.25 7.125 C13.55390625 6.59132812 12.8578125 6.05765625 12.140625 5.5078125 C8.14935192 2.69644131 4.847461 1.66101741 0 1 C0 0.67 0 0.34 0 0 Z " fill="#5D5C58" transform="translate(150,175)"/>
<path d="M0 0 C0.33 0 0.66 0 1 0 C1.12117187 0.74765625 1.24234375 1.4953125 1.3671875 2.265625 C1.53476563 3.25046875 1.70234375 4.2353125 1.875 5.25 C2.03742188 6.22453125 2.19984375 7.1990625 2.3671875 8.203125 C2.94855848 10.77264117 3.70840265 12.72071056 5 15 C4.01 15 3.02 15 2 15 C2.01160156 15.85722656 2.02320313 16.71445313 2.03515625 17.59765625 C2.0818041 23.50860552 2.08249916 29.18156704 1 35 C0.67 35 0.34 35 0 35 C0 23.45 0 11.9 0 0 Z " fill="#BDBCBB" transform="translate(248,178)"/>
<path d="M0 0 C0.33 0 0.66 0 1 0 C1.02505615 0.56396484 1.0501123 1.12792969 1.07592773 1.70898438 C1.19318301 4.30614882 1.31531266 6.9030631 1.4375 9.5 C1.47681641 10.386875 1.51613281 11.27375 1.55664062 12.1875 C1.81084087 17.50615127 2.26676337 22.7256256 3 28 C2.34 28 1.68 28 1 28 C1 30.97 1 33.94 1 37 C0.67 37 0.34 37 0 37 C0 24.79 0 12.58 0 0 Z " fill="#B1B0AE" transform="translate(160,117)"/>
<path d="M0 0 C0.33 0 0.66 0 1 0 C1.17015625 0.59167969 1.3403125 1.18335938 1.515625 1.79296875 C2.98385102 6.58032275 4.23090836 10.52846823 8 14 C10.92683513 15.53937349 13.91270412 16.81917529 17 18 C16.67 18.66 16.34 19.32 16 20 C8.30756625 17.39239534 2.85422002 14.5602008 -1 7 C-0.75 3.125 -0.75 3.125 0 0 Z " fill="#666561" transform="translate(49,193)"/>
<path d="M0 0 C0.33 0 0.66 0 1 0 C1 11.55 1 23.1 1 35 C0.67 35 0.34 35 0 35 C-0.33 31.37 -0.66 27.74 -1 24 C-1.66 24.33 -2.32 24.66 -3 25 C-2.67128906 24.00484375 -2.34257813 23.0096875 -2.00390625 21.984375 C-0.87231119 18.02429079 -0.8340042 14.37327249 -0.9375 10.25 C-1.09692451 3.29077353 -1.09692451 3.29077353 0 0 Z " fill="#D6D5D3" transform="translate(107,179)"/>
<path d="M0 0 C0.99 0.66 1.98 1.32 3 2 C5.60713564 2.3174994 5.60713564 2.3174994 8.4375 2.25 C9.38496094 2.25515625 10.33242187 2.2603125 11.30859375 2.265625 C14.02552453 1.99748089 15.67465583 1.38531142 18 0 C17 3 17 3 15.30859375 4.16796875 C12.4594157 5.19482988 10.08909431 5.30105008 7.0625 5.3125 C6.04285156 5.32925781 5.02320312 5.34601563 3.97265625 5.36328125 C0.63129895 4.95494192 -1.26340652 3.91007169 -4 2 C-3.01 2 -2.02 2 -1 2 C-0.67 1.34 -0.34 0.68 0 0 Z " fill="#565551" transform="translate(93,151)"/>
<path d="M0 0 C0.66 0.66 1.32 1.32 2 2 C-2.62854388 5.89772117 -5.8203035 6.41123369 -11.828125 6.23828125 C-14 6 -14 6 -16 5 C-18.3329866 4.95977609 -20.66706666 4.95679753 -23 5 C-23 4.34 -23 3.68 -23 3 C-16.25 1.875 -16.25 1.875 -14 3 C-11.69589956 3.23604169 -11.69589956 3.23604169 -9.125 3.25 C-8.26132812 3.27578125 -7.39765625 3.3015625 -6.5078125 3.328125 C-3.54975351 2.94108924 -2.20798216 1.95124005 0 0 Z " fill="#8B8986" transform="translate(273,212)"/>
<path d="M0 0 C2.03819846 2.03819846 2.67841059 3.29417798 3.6875 5.9375 C3.95949219 6.62714844 4.23148437 7.31679687 4.51171875 8.02734375 C5 10 5 10 4 13 C3.34 12.34 2.68 11.68 2 11 C0.68 11 -0.64 11 -2 11 C-2 7.7 -2 4.4 -2 1 C-1.34 0.67 -0.68 0.34 0 0 Z " fill="#DDDCD8" transform="translate(300,202)"/>
<path d="M0 0 C0.33 0 0.66 0 1 0 C1 12.21 1 24.42 1 37 C-0.98 37.495 -0.98 37.495 -3 38 C-3 37.01 -3 36.02 -3 35 C-2.01 35.33 -1.02 35.66 0 36 C0 24.12 0 12.24 0 0 Z " fill="#D6D5D2" transform="translate(242,178)"/>
<path d="M0 0 C4.31248609 -0.02886537 8.62494762 -0.04675255 12.9375 -0.0625 C14.16919922 -0.07087891 15.40089844 -0.07925781 16.66992188 -0.08789062 C17.83974609 -0.09111328 19.00957031 -0.09433594 20.21484375 -0.09765625 C21.84087524 -0.10551147 21.84087524 -0.10551147 23.49975586 -0.11352539 C26 0 26 0 27 1 C27.04063832 2.66617115 27.042721 4.33388095 27 6 C25.88625 5.35546875 24.7725 4.7109375 23.625 4.046875 C18.76236647 1.61555824 14.36653005 1.3406787 9 1.25 C8.12988281 1.22035156 7.25976562 1.19070312 6.36328125 1.16015625 C4.24266784 1.09024592 2.12133437 1.04276884 0 1 C0 0.67 0 0.34 0 0 Z " fill="#81807C" transform="translate(106,175)"/>
<path d="M0 0 C0.99 0.33 1.98 0.66 3 1 C4.00496852 4.01490557 4.10335303 6.04181692 4.0625 9.1875 C4.05347656 10.08855469 4.04445312 10.98960937 4.03515625 11.91796875 C4.02355469 12.60503906 4.01195312 13.29210937 4 14 C3.01 12.68 2.02 11.36 1 10 C1 10.66 1 11.32 1 12 C0.34 12 -0.32 12 -1 12 C-1.02712066 10.56260487 -1.04645067 9.12506137 -1.0625 7.6875 C-1.07410156 6.88699219 -1.08570313 6.08648437 -1.09765625 5.26171875 C-1 3 -1 3 0 0 Z " fill="#312F2D" transform="translate(150,126)"/>
<path d="M0 0 C0.66 0.33 1.32 0.66 2 1 C1.67 1.33 1.34 1.66 1 2 C0.37855133 7.16047827 0.37855133 7.16047827 2.1171875 11.86328125 C3.33769109 13.30788861 4.66274172 14.66274172 6 16 C2.9168649 14.80100302 -0.06279492 13.52299523 -3 12 C-3.36923077 4.61538462 -3.36923077 4.61538462 -1.5 1.5 C-1.005 1.005 -0.51 0.51 0 0 Z " fill="#4B4A48" transform="translate(28,115)"/>
<path d="M0 0 C5.94 0 11.88 0 18 0 C14.30770513 1.84614743 12.95353713 2.2191187 9.0625 2.375 C4.58097713 2.725843 2.20926506 3.68375944 -1 7 C-0.67 4.69 -0.34 2.38 0 0 Z " fill="#868581" transform="translate(51,114)"/>
<path d="M0 0 C0 1.32 0 2.64 0 4 C-2.125 4.75 -2.125 4.75 -5 5 C-8.3125 3.0625 -8.3125 3.0625 -11 1 C-7.23664609 -2.76335391 -4.62553969 -2.18428263 0 0 Z " fill="#E7E6E3" transform="translate(242,176)"/>
<path d="M0 0 C0.99 0.33 1.98 0.66 3 1 C2.2575 1.556875 1.515 2.11375 0.75 2.6875 C-1.91707995 4.93027178 -3.91556232 7.22074975 -6 10 C-6.99 9.67 -7.98 9.34 -9 9 C-9 9.99 -9 10.98 -9 12 C-9.66 12 -10.32 12 -11 12 C-9.60991124 6.74855359 -6.1957125 4.12699328 -2 1 C-1.34 0.67 -0.68 0.34 0 0 Z " fill="#43423E" transform="translate(181,176)"/>
<path d="M0 0 C2.5 1.5625 2.5 1.5625 5 4 C5.3125 7.75 5.3125 7.75 5 11 C4.01 11.33 3.02 11.66 2 12 C0.68 8.37 -0.64 4.74 -2 1 C-1.34 0.67 -0.68 0.34 0 0 Z " fill="#EDECE9" transform="translate(298,176)"/>
<path d="M0 0 C4.31392226 0.4793247 6.16569547 1.7457985 9 5 C8.34 7.31 7.68 9.62 7 12 C6.34 12 5.68 12 5 12 C5.33 9.69 5.66 7.38 6 5 C4.68 4.67 3.36 4.34 2 4 C2 3.34 2 2.68 2 2 C1.34 2 0.68 2 0 2 C0 1.34 0 0.68 0 0 Z " fill="#333131" transform="translate(230,177)"/>
<path d="M0 0 C0.99 0.33 1.98 0.66 3 1 C2.21625 1.2475 1.4325 1.495 0.625 1.75 C-2.43098307 3.20523003 -2.85025533 3.90453358 -4 7 C-4.37125 7.9075 -4.7425 8.815 -5.125 9.75 C-5.41375 10.4925 -5.7025 11.235 -6 12 C-6.66 11.34 -7.32 10.68 -8 10 C-8.99 10.66 -9.98 11.32 -11 12 C-9.60991124 6.74855359 -6.1957125 4.12699328 -2 1 C-1.34 0.67 -0.68 0.34 0 0 Z " fill="#3B3A38" transform="translate(146,176)"/>
<path d="M0 0 C2.97 0 5.94 0 9 0 C8.34 1.32 7.68 2.64 7 4 C6.32033324 5.66140763 5.65061095 7.32700041 5 9 C4.67 8.01 4.34 7.02 4 6 C3.34 6 2.68 6 2 6 C1.34 4.02 0.68 2.04 0 0 Z " fill="#3F3E3C" transform="translate(241,175)"/>
<path d="M0 0 C4.29 0.33 8.58 0.66 13 1 C13 3.31 13 5.62 13 8 C12.01 8.495 12.01 8.495 11 9 C10.855625 8.236875 10.71125 7.47375 10.5625 6.6875 C8.39076892 2.95212255 5.9217248 2.62907285 1.8984375 1.48046875 C1.27195313 1.32191406 0.64546875 1.16335937 0 1 C0 0.67 0 0.34 0 0 Z " fill="#AAA9A5" transform="translate(33,113)"/>
<path d="M0 0 C0.33 0 0.66 0 1 0 C1.042721 1.66611905 1.04063832 3.33382885 1 5 C0 6 0 6 -1.94946289 6.11352539 C-2.7821167 6.10828857 -3.61477051 6.10305176 -4.47265625 6.09765625 C-5.37177734 6.09443359 -6.27089844 6.09121094 -7.19726562 6.08789062 C-8.14279297 6.07951172 -9.08832031 6.07113281 -10.0625 6.0625 C-11.01189453 6.05798828 -11.96128906 6.05347656 -12.93945312 6.04882812 C-15.29303065 6.0370011 -17.64648477 6.02052025 -20 6 C-20 5.67 -20 5.34 -20 5 C-19.13117188 4.96261719 -18.26234375 4.92523438 -17.3671875 4.88671875 C-7.90727767 4.63606769 -7.90727767 4.63606769 0 0 Z " fill="#54534F" transform="translate(133,211)"/>
<path d="M0 0 C4 4 4 4 5.375 5.5625 C7.66224856 7.58583526 10.24738815 8.7154478 13 10 C13 10.33 13 10.66 13 11 C9.32851355 11.20397147 7.15842397 10.87531423 4 9 C3.0925 8.46375 2.185 7.9275 1.25 7.375 C0.5075 6.92125 -0.235 6.4675 -1 6 C-0.67 4.02 -0.34 2.04 0 0 Z " fill="#D6D5D2" transform="translate(135,206)"/>
<path d="M0 0 C3.63 0.33 7.26 0.66 11 1 C11 4.3 11 7.6 11 11 C9 10 9 10 7.75 7.6875 C5.6424983 4.45097954 3.24783916 3.0208777 0 1 C0 0.67 0 0.34 0 0 Z " fill="#686763" transform="translate(265,175)"/>
<path d="M0 0 C0.33 0 0.66 0 1 0 C1.3690205 10.55808656 1.3690205 10.55808656 -1 15 C-1.33 14.01 -1.66 13.02 -2 12 C-1.67 11.34 -1.34 10.68 -1 10 C-2.32 10.33 -3.64 10.66 -5 11 C-5 8.03 -5 5.06 -5 2 C-4.01 3.32 -3.02 4.64 -2 6 C-0.35920758 4.35920758 -0.39887658 2.22231235 0 0 Z " fill="#464541" transform="translate(202,130)"/>
<path d="M0 0 C0.33 0.99 0.66 1.98 1 3 C0.01 3.66 -0.98 4.32 -2 5 C-0.68 5.33 0.64 5.66 2 6 C1.1875 7.9375 1.1875 7.9375 0 10 C-0.99 10.33 -1.98 10.66 -3 11 C-3 10.01 -3 9.02 -3 8 C-3.66 7.67 -4.32 7.34 -5 7 C-5.33 7.66 -5.66 8.32 -6 9 C-6.33 7.68 -6.66 6.36 -7 5 C-2.25 2 -2.25 2 0 2 C0 1.34 0 0.68 0 0 Z " fill="#E1E0DC" transform="translate(237,195)"/>
<path d="M0 0 C0.66 1.32 1.32 2.64 2 4 C1.01 4.33 0.02 4.66 -1 5 C-0.67 6.98 -0.34 8.96 0 11 C-0.99 10.67 -1.98 10.34 -3 10 C-3.33 9.01 -3.66 8.02 -4 7 C-4.99 7.66 -5.98 8.32 -7 9 C-7.33 7.68 -7.66 6.36 -8 5 C-7.05125 4.54625 -6.1025 4.0925 -5.125 3.625 C-1.99686321 2.19761746 -1.99686321 2.19761746 0 0 Z " fill="#474642" transform="translate(232,195)"/>
<path d="M0 0 C0.804375 0.66 1.60875 1.32 2.4375 2 C6.42044969 4.68374944 10.34809526 4.54050703 15 4 C15.99 3.67 16.98 3.34 18 3 C18.33 3.66 18.66 4.32 19 5 C16.19502177 6.40248912 13.81498635 6.16979056 10.6875 6.1875 C9.55699219 6.20167969 8.42648438 6.21585938 7.26171875 6.23046875 C4.06795157 6.00480137 1.8723571 5.36342654 -1 4 C-0.67 2.68 -0.34 1.36 0 0 Z " fill="#71706C" transform="translate(179,211)"/>
<path d="M0 0 C2.96404505 2.80804268 5.44499019 5.18315774 7 9 C4.69 9 2.38 9 0 9 C0 6.03 0 3.06 0 0 Z " fill="#312F30" transform="translate(249,206)"/>
<path d="M0 0 C2.25 1.3125 2.25 1.3125 3.25 3.3125 C1.04112053 4.65360539 -0.20469419 5.37859767 -2.8125 5.0625 C-4.75 4.3125 -4.75 4.3125 -7.75 2.3125 C-3.46942446 -0.86735612 -3.46942446 -0.86735612 0 0 Z " fill="#3F3E3A" transform="translate(231.75,137.6875)"/>
<path d="M0 0 C0.99 0.33 1.98 0.66 3 1 C2.67 2.65 2.34 4.3 2 6 C1.38125 6.12375 0.7625 6.2475 0.125 6.375 C-2.19120832 6.87197356 -2.19120832 6.87197356 -4 9 C-6.125 8.625 -6.125 8.625 -8 8 C-7.13375 7.690625 -7.13375 7.690625 -6.25 7.375 C-3.18589456 5.50249112 -1.84460032 3.03041481 0 0 Z " fill="#E4E3E0" transform="translate(278,208)"/>
<path d="M0 0 C0.33 0 0.66 0 1 0 C1.05434116 2.5419589 1.0938339 5.08273682 1.125 7.625 C1.14175781 8.33785156 1.15851563 9.05070313 1.17578125 9.78515625 C1.21684602 14.2612164 0.69086567 17.77949278 -1 22 C-3 19 -3 19 -2.625 15.8125 C-2.41875 14.884375 -2.2125 13.95625 -2 13 C-1.34 13 -0.68 13 0 13 C0 8.71 0 4.42 0 0 Z " fill="#E6E2E0" transform="translate(100,182)"/>
<path d="M0 0 C2.31 0.33 4.62 0.66 7 1 C7 1.66 7 2.32 7 3 C7.66 3.33 8.32 3.66 9 4 C8.34 4 7.68 4 7 4 C6.67 4.66 6.34 5.32 6 6 C3.03 5.505 3.03 5.505 0 5 C0 3.35 0 1.7 0 0 Z " fill="#252422" transform="translate(259,193)"/>
<path d="M0 0 C6.81818182 1.96969697 6.81818182 1.96969697 9 5 C9 5.99 9 6.98 9 8 C4.75153925 7.52794881 2.73180712 5.11122478 0 2 C0 1.34 0 0.68 0 0 Z " fill="#272524" transform="translate(33,134)"/>
<path d="M0 0 C0.66 0.99 1.32 1.98 2 3 C2.66 3 3.32 3 4 3 C4 2.34 4 1.68 4 1 C4.99 1.33 5.98 1.66 7 2 C6.38125 2.70125 5.7625 3.4025 5.125 4.125 C2.9572991 7.05777181 1.97344445 9.51182406 1 13 C0.67 13 0.34 13 0 13 C0.33 10.36 0.66 7.72 1 5 C0.34 5 -0.32 5 -1 5 C-1.33 3.68 -1.66 2.36 -2 1 C-1.34 0.67 -0.68 0.34 0 0 Z " fill="#D3D2D0" transform="translate(133,179)"/>
<path d="M0 0 C0.66 0 1.32 0 2 0 C2 0.99 2 1.98 2 3 C2.66 3 3.32 3 4 3 C4 4.65 4 6.3 4 8 C3.01 8.33 2.02 8.66 1 9 C-0.61949011 6.42786866 -1.04408751 5.32330841 -0.625 2.25 C-0.41875 1.5075 -0.2125 0.765 0 0 Z " fill="#252422" transform="translate(204,185)"/>
<path d="M0 0 C0.99 0 1.98 0 3 0 C5.04898287 4.21896866 5.21207997 7.65372146 5.125 12.3125 C5.10695313 13.56675781 5.08890625 14.82101563 5.0703125 16.11328125 C5.04710938 17.06589844 5.02390625 18.01851562 5 19 C4.67 19 4.34 19 4 19 C3.95101562 18.08476562 3.90203125 17.16953125 3.8515625 16.2265625 C3.77679688 15.03804687 3.70203125 13.84953125 3.625 12.625 C3.55539063 11.44164062 3.48578125 10.25828125 3.4140625 9.0390625 C3.29782654 5.89437681 3.29782654 5.89437681 1 4 C0.01 4 -0.98 4 -2 4 C-2 3.34 -2 2.68 -2 2 C-1.34 2 -0.68 2 0 2 C0 1.34 0 0.68 0 0 Z " fill="#4B4A49" transform="translate(102,178)"/>
<path d="M0 0 C0.66 0.99 1.32 1.98 2 3 C1.34 3 0.68 3 0 3 C0 3.66 0 4.32 0 5 C0.66 5 1.32 5 2 5 C1.67 5.99 1.34 6.98 1 8 C0.01 8 -0.98 8 -2 8 C-3.6875 6 -3.6875 6 -5 4 C-4.34 4 -3.68 4 -3 4 C-3 3.34 -3 2.68 -3 2 C-2.01 1.34 -1.02 0.68 0 0 Z " fill="#E7E6E2" transform="translate(102,164)"/>
<path d="M0 0 C0.99 0 1.98 0 3 0 C3 2.97 3 5.94 3 9 C2.01 8.67 1.02 8.34 0 8 C-0.38063221 5.6739143 -0.71269945 3.33944736 -1 1 C-0.67 0.67 -0.34 0.34 0 0 Z " fill="#22211E" transform="translate(163,128)"/>
<path d="M0 0 C2.4375 0.625 2.4375 0.625 5 2 C5.8125 5.125 5.8125 5.125 6 8 C3.11562221 6.70700306 1.12780579 5.34058637 -1 3 C-0.67 2.01 -0.34 1.02 0 0 Z " fill="#2B2A26" transform="translate(173,206)"/>
<path d="M0 0 C-0.33 0.66 -0.66 1.32 -1 2 C-2.11375 2.309375 -3.2275 2.61875 -4.375 2.9375 C-8.37870354 4.09169996 -8.37870354 4.09169996 -11 7 C-12.17574711 9.09989652 -12.17574711 9.09989652 -13 11 C-13.40060526 7.49470398 -13.15413141 6.2260594 -11.125 3.25 C-7.55525929 -0.52972546 -5.07054461 -0.09389897 0 0 Z " fill="#C1C0BC" transform="translate(266,174)"/>
<path d="M0 0 C0.99 0 1.98 0 3 0 C3 1.32 3 2.64 3 4 C2.34 4 1.68 4 1 4 C0.87625 4.639375 0.7525 5.27875 0.625 5.9375 C0.41875 6.618125 0.2125 7.29875 0 8 C-0.99 8.495 -0.99 8.495 -2 9 C-2 8.34 -2 7.68 -2 7 C-2.66 7 -3.32 7 -4 7 C-3.00978527 4.02935582 -2.07277359 2.31193977 0 0 Z " fill="#F4F3F1" transform="translate(32,115)"/>
<path d="M0 0 C1.65 1.32 3.3 2.64 5 4 C2.525 5.485 2.525 5.485 0 7 C-1.65 5.68 -3.3 4.36 -5 3 C-3.35 2.01 -1.7 1.02 0 0 Z " fill="#302F2B" transform="translate(261,92)"/>
<path d="M0 0 C0.33 0 0.66 0 1 0 C1 1.65 1 3.3 1 5 C-2.96 4.67 -6.92 4.34 -11 4 C-11 3.34 -11 2.68 -11 2 C-10.28972656 1.93941406 -9.57945313 1.87882813 -8.84765625 1.81640625 C-7.46900391 1.69072266 -7.46900391 1.69072266 -6.0625 1.5625 C-5.14597656 1.48128906 -4.22945313 1.40007812 -3.28515625 1.31640625 C-1.03840268 1.23955024 -1.03840268 1.23955024 0 0 Z " fill="#767571" transform="translate(124,193)"/>
<path d="M0 0 C1.32 0.66 2.64 1.32 4 2 C3.38125 2.0825 2.7625 2.165 2.125 2.25 C-0.13720728 2.79922538 -0.13720728 2.79922538 -1.125 4.8125 C-1.41375 5.534375 -1.7025 6.25625 -2 7 C-2.66666667 8.33333333 -3.33333333 9.66666667 -4 11 C-4.1953125 4.9453125 -4.1953125 4.9453125 -4 3 C-3.34 2.34 -2.68 1.68 -2 1 C-1.34 1.33 -0.68 1.66 0 2 C0 1.34 0 0.68 0 0 Z " fill="#E3E2E0" transform="translate(253,174)"/>
<path d="M0 0 C5.95074431 5.79816112 5.95074431 5.79816112 6.09765625 9.3828125 C6.08605469 10.28773438 6.07445312 11.19265625 6.0625 12.125 C6.05347656 13.03507813 6.04445313 13.94515625 6.03515625 14.8828125 C6.02355469 15.58148438 6.01195312 16.28015625 6 17 C5.67 17 5.34 17 5 17 C4.34 13.37 3.68 9.74 3 6 C2.01 6.33 1.02 6.66 0 7 C0 4.69 0 2.38 0 0 Z " fill="#D1D0CD" transform="translate(41,144)"/>
<path d="M0 0 C2 1.375 2 1.375 4 3 C4 3.66 4 4.32 4 5 C4.61875 5.268125 5.2375 5.53625 5.875 5.8125 C8 7 8 7 10 10 C9.01 10.33 8.02 10.66 7 11 C7 10.01 7 9.02 7 8 C6.01 8.33 5.02 8.66 4 9 C3.34 7.35 2.68 5.7 2 4 C1.01 4.33 0.02 4.66 -1 5 C-0.67 3.35 -0.34 1.7 0 0 Z " fill="#D0CECD" transform="translate(27,130)"/>
<path d="M0 0 C2.97 0 5.94 0 9 0 C8.67 0.99 8.34 1.98 8 3 C7.77820215 4.89212737 7.59385985 6.78884472 7.4375 8.6875 C7.35371094 9.68136719 7.26992187 10.67523438 7.18359375 11.69921875 C7.12300781 12.45847656 7.06242188 13.21773437 7 14 C6.67 14 6.34 14 6 14 C5.67 10.04 5.34 6.08 5 2 C3.35 2 1.7 2 0 2 C0 1.34 0 0.68 0 0 Z " fill="#52514F" transform="translate(153,114)"/>
<path d="M0 0 C0.99 0.33 1.98 0.66 3 1 C2.65120368 4.25543229 1.97866739 5.01873107 -0.5625 7.25 C-1.7690625 8.11625 -1.7690625 8.11625 -3 9 C-3.33 7.35 -3.66 5.7 -4 4 C-3.34 4 -2.68 4 -2 4 C-1.67 3.34 -1.34 2.68 -1 2 C-0.67 1.34 -0.34 0.68 0 0 Z " fill="#ECEBE7" transform="translate(93,205)"/>
<path d="M0 0 C1.98 0.495 1.98 0.495 4 1 C3.34 2.98 2.68 4.96 2 7 C1.01 7 0.02 7 -1 7 C-0.67 4.69 -0.34 2.38 0 0 Z " fill="#F6F5F1" transform="translate(279,200)"/>
<path d="M0 0 C0.99 0.495 0.99 0.495 2 1 C2 1.66 2 2.32 2 3 C5.58752742 4.86551426 9.27812193 6.42535928 13 8 C9.8035914 9.06546953 7.34252724 9.07427838 4 9 C3.71125 8.401875 3.4225 7.80375 3.125 7.1875 C1.95257974 4.80672208 1.95257974 4.80672208 0 2 C0 1.34 0 0.68 0 0 Z " fill="#464543" transform="translate(253,185)"/>
<path d="M0 0 C0.99 0.33 1.98 0.66 3 1 C4.39195915 5.17587745 2.82323219 7.13474776 1 11 C-1.2184264 6.97910216 -1.20898633 4.38257546 0 0 Z " fill="#E4E3DF" transform="translate(168,180)"/>
<path d="M0 0 C0.66 0 1.32 0 2 0 C2 2.64 2 5.28 2 8 C1.01 8.495 1.01 8.495 0 9 C-1.0409066 10.64142963 -2.04504326 12.30712215 -3 14 C-3 10.7997785 -2.36757608 8.38516529 -1.5 5.3125 C-1.2215625 4.31863281 -0.943125 3.32476562 -0.65625 2.30078125 C-0.33140625 1.16189453 -0.33140625 1.16189453 0 0 Z " fill="#5E5C59" transform="translate(249,105)"/>
<path d="M0 0 C0.99 0.33 1.98 0.66 3 1 C3.94921875 3.28515625 3.94921875 3.28515625 4.6875 6.0625 C4.93886719 6.98160156 5.19023437 7.90070313 5.44921875 8.84765625 C5.63097656 9.55792969 5.81273437 10.26820313 6 11 C5.53851563 10.53722656 5.07703125 10.07445312 4.6015625 9.59765625 C3.53575286 8.53444615 2.46017483 7.48093734 1.375 6.4375 C0 5 0 5 -1 3 C-0.67 2.01 -0.34 1.02 0 0 Z " fill="#D5D4D2" transform="translate(292,185)"/>
<path d="M0 0 C0.33 0.66 0.66 1.32 1 2 C1.66 2 2.32 2 3 2 C1.49860488 6.20390632 -1.17275043 7.89110738 -5 10 C-5.99 9.67 -6.98 9.34 -8 9 C-6.576875 8.1646875 -6.576875 8.1646875 -5.125 7.3125 C-1.91121213 4.93429698 -1.04434882 3.75965574 0 0 Z " fill="#494844" transform="translate(46,161)"/>
<path d="M0 0 C0.45890625 0.33773437 0.9178125 0.67546875 1.390625 1.0234375 C2.00421875 1.46945313 2.6178125 1.91546875 3.25 2.375 C3.85328125 2.81585938 4.4565625 3.25671875 5.078125 3.7109375 C6.98997965 4.99327904 8.92142163 6.01589431 11 7 C9.56138706 6.91253716 8.12402492 6.80434652 6.6875 6.6875 C5.88699219 6.62949219 5.08648437 6.57148438 4.26171875 6.51171875 C1.63727666 5.91793306 0.69179328 5.04219706 -1 3 C-0.67 2.01 -0.34 1.02 0 0 Z " fill="#52514D" transform="translate(171,149)"/>
<path d="M0 0 C2.475 0.495 2.475 0.495 5 1 C3.68 3.64 2.36 6.28 1 9 C0.67 9 0.34 9 0 9 C0 6.03 0 3.06 0 0 Z " fill="#E8E7E3" transform="translate(161,120)"/>
<path d="M0 0 C0 1.65 0 3.3 0 5 C-5.2734375 8.22265625 -5.2734375 8.22265625 -7 9 C-7.66 8.67 -8.32 8.34 -9 8 C-7.33333333 6.33333333 -5.66666667 4.66666667 -4 3 C-3.4225 2.401875 -2.845 1.80375 -2.25 1.1875 C-1 0 -1 0 0 0 Z " fill="#464541" transform="translate(169,207)"/>
<path d="M0 0 C5.841744 -0.35050464 9.8531808 -0.16727335 15 3 C14.01 3.66 13.02 4.32 12 5 C11.13375 4.525625 10.2675 4.05125 9.375 3.5625 C6.14612626 2.06765105 3.50966174 1.41781687 0 1 C0 0.67 0 0.34 0 0 Z " fill="#767571" transform="translate(185,175)"/>
<path d="M0 0 C1.88391785 3.26545761 2.49287967 6.28111761 3 10 C0.0625 8.6875 0.0625 8.6875 -3 7 C-3.33 6.01 -3.66 5.02 -4 4 C-3.01 4 -2.02 4 -1 4 C-0.67 2.68 -0.34 1.36 0 0 Z " fill="#302F2E" transform="translate(90,144)"/>
<path d="M0 0 C3.63 1.65 7.26 3.3 11 5 C10.67 5.66 10.34 6.32 10 7 C9.34 7 8.68 7 8 7 C8 6.34 8 5.68 8 5 C5.64632287 4.3121764 5.64632287 4.3121764 3 4 C2.01 4.66 1.02 5.32 0 6 C0 4.02 0 2.04 0 0 Z " fill="#E3E2DF" transform="translate(254,195)"/>
<path d="M0 0 C0.99 0 1.98 0 3 0 C3 3.96 3 7.92 3 12 C0.8008587 7.60171741 0.48144941 4.81449408 0 0 Z " fill="#F0EFED" transform="translate(208,183)"/>
<path d="M0 0 C2.475 0.495 2.475 0.495 5 1 C5 2.98 5 4.96 5 7 C2.5 5.1875 2.5 5.1875 0 3 C0 2.01 0 1.02 0 0 Z " fill="#33322E" transform="translate(163,178)"/>
<path d="M0 0 C2.97 0 5.94 0 9 0 C8.34 1.32 7.68 2.64 7 4 C4.97954558 3.39816251 2.97888961 2.72693904 1 2 C0.67 1.34 0.34 0.68 0 0 Z " fill="#504F4B" transform="translate(69,175)"/>
<path d="M0 0 C4.99911924 0.47610659 7.97832683 2.03162219 12 5 C11.01 5.66 10.02 6.32 9 7 C8.2575 6.401875 7.515 5.80375 6.75 5.1875 C4.52582236 3.41826778 2.28337765 1.69139085 0 0 Z " fill="#61605C" transform="translate(84,162)"/>
<path d="M0 0 C1.94268841 2.91403262 3.46395304 5.85808576 5 9 C3.02 9 1.04 9 -1 9 C-0.67 6.03 -0.34 3.06 0 0 Z " fill="#3E3C3C" transform="translate(308,208)"/>
<path d="M0 0 C1.42944945 2.35438733 2.08661261 3.48032433 1.625 6.25 C1.41875 6.8275 1.2125 7.405 1 8 C0.01 8 -0.98 8 -2 8 C-2 7.34 -2 6.68 -2 6 C-1.34 6 -0.68 6 0 6 C0 5.34 0 4.68 0 4 C-1.65 4.66 -3.3 5.32 -5 6 C-4.34 5.01 -3.68 4.02 -3 3 C-2.34 3 -1.68 3 -1 3 C-0.67 2.01 -0.34 1.02 0 0 Z " fill="#D6D5D2" transform="translate(101,207)"/>
<path d="M0 0 C0.433125 0.9590625 0.433125 0.9590625 0.875 1.9375 C1.82823451 4.15206079 1.82823451 4.15206079 4 5 C3.67 5.99 3.34 6.98 3 8 C1.0625 7.25 1.0625 7.25 -1 6 C-1.875 4 -1.875 4 -2 2 C-1.34 1.34 -0.68 0.68 0 0 Z " fill="#272622" transform="translate(228,201)"/>
<path d="M0 0 C1.32 0 2.64 0 4 0 C4.33 1.65 4.66 3.3 5 5 C2.69 5 0.38 5 -2 5 C-1.34 3.35 -0.68 1.7 0 0 Z " fill="#2D2C28" transform="translate(120,151)"/>
<path d="M0 0 C0.33 1.65 0.66 3.3 1 5 C-0.32 5 -1.64 5 -3 5 C-3.33 4.34 -3.66 3.68 -4 3 C-4.66 2.67 -5.32 2.34 -6 2 C-6 1.34 -6 0.68 -6 0 C-3.50907189 -1.24546405 -2.58919267 -0.7767578 0 0 Z " fill="#CBCAC6" transform="translate(231,143)"/>
<path d="M0 0 C1.09658936 3.28976808 0.79953138 4.71303767 0 8 C0.66 8.33 1.32 8.66 2 9 C-0.31 9 -2.62 9 -5 9 C-3.99088542 7.2421875 -2.98177083 5.484375 -1.97265625 3.7265625 C-1.28280949 2.50201525 -0.62855462 1.25710923 0 0 Z " fill="#545350" transform="translate(282,208)"/>
<path d="M0 0 C1.54571278 2.31856917 2.79618552 4.50638429 4 7 C3.34 7 2.68 7 2 7 C2 7.99 2 8.98 2 10 C1.01 9.67 0.02 9.34 -1 9 C-0.67 6.03 -0.34 3.06 0 0 Z " fill="#CAC9C5" transform="translate(169,203)"/>
<path d="M0 0 C1.32 0.66 2.64 1.32 4 2 C3.34 3.65 2.68 5.3 2 7 C1.01 6.67 0.02 6.34 -1 6 C-1.042721 4.33388095 -1.04063832 2.66617115 -1 1 C-0.67 0.67 -0.34 0.34 0 0 Z " fill="#EFEEED" transform="translate(250,192)"/>
<path d="M0 0 C0.66 0 1.32 0 2 0 C2.33 1.65 2.66 3.3 3 5 C2.34 5 1.68 5 1 5 C1 7.97 1 10.94 1 14 C0.67 14 0.34 14 0 14 C0 9.38 0 4.76 0 0 Z " fill="#C0BEBF" transform="translate(160,140)"/>
<path d="M0 0 C0.66 0.33 1.32 0.66 2 1 C1.2884375 1.61875 1.2884375 1.61875 0.5625 2.25 C-1.16266518 4.182185 -1.56584875 5.48192275 -2 8 C-2.66 8 -3.32 8 -4 8 C-4 8.66 -4 9.32 -4 10 C-4.66 10 -5.32 10 -6 10 C-4.79157144 5.56909529 -3.48331435 3.01887244 0 0 Z " fill="#D3D2CE" transform="translate(174,117)"/>
<path d="M0 0 C0.66 0.66 1.32 1.32 2 2 C0.35 3.98 -1.3 5.96 -3 8 C-3.66 6.68 -4.32 5.36 -5 4 C-4.0409375 3.8453125 -4.0409375 3.8453125 -3.0625 3.6875 C-2.381875 3.460625 -1.70125 3.23375 -1 3 C-0.67 2.01 -0.34 1.02 0 0 Z M-7 5 C-6.01 5.495 -6.01 5.495 -5 6 C-5.99 6.495 -5.99 6.495 -7 7 C-7 6.34 -7 5.68 -7 5 Z " fill="#DDDCD8" transform="translate(18,141)"/>
<path d="M0 0 C2 2 2 2 2.3125 5 C2.209375 5.99 2.10625 6.98 2 8 C1.01 8.66 0.02 9.32 -1 10 C-1.125 3.375 -1.125 3.375 0 0 Z " fill="#20201F" transform="translate(157,115)"/>
<path d="M0 0 C1.27875 0.103125 2.5575 0.20625 3.875 0.3125 C4.95394531 0.39951172 4.95394531 0.39951172 6.0546875 0.48828125 C8 1 8 1 10 4 C9.34 4.66 8.68 5.32 8 6 C7.236875 5.38125 6.47375 4.7625 5.6875 4.125 C3.00374191 1.94402948 3.00374191 1.94402948 0 0 Z " fill="#484743" transform="translate(135,115)"/>
<path d="M0 0 C2.97 0.495 2.97 0.495 6 1 C6 1.33 6 1.66 6 2 C4.35 2.33 2.7 2.66 1 3 C1 3.66 1 4.32 1 5 C0.34 5 -0.32 5 -1 5 C-1.33 5.99 -1.66 6.98 -2 8 C-2.6875 6.25 -2.6875 6.25 -3 4 C-1.5625 1.75 -1.5625 1.75 0 0 Z " fill="#D9D8D5" transform="translate(31,113)"/>
<path d="M0 0 C1.32 0 2.64 0 4 0 C3.67 1.65 3.34 3.3 3 5 C1.68 4.67 0.36 4.34 -1 4 C-0.67 2.68 -0.34 1.36 0 0 Z " fill="#EAE9E7" transform="translate(115,116)"/>
<path d="M0 0 C0.66 0.99 1.32 1.98 2 3 C1.21069203 5.48935591 0.1651105 7.669779 -1 10 C-1.66 10 -2.32 10 -3 10 C-2.01 6.7 -1.02 3.4 0 0 Z " fill="#EBEAE7" transform="translate(285,203)"/>
<path d="M0 0 C0.99 0.33 1.98 0.66 3 1 C2.21625 1.61875 1.4325 2.2375 0.625 2.875 C-1.96837647 4.89858661 -1.96837647 4.89858661 -4 7 C-4 6.34 -4 5.68 -4 5 C-4.66 4.67 -5.32 4.34 -6 4 C-3.1875 1.9375 -3.1875 1.9375 0 0 Z " fill="#5F5E5A" transform="translate(181,176)"/>
<path d="M0 0 C1.32 0.66 2.64 1.32 4 2 C1.69 3.65 -0.62 5.3 -3 7 C-3 3.48283697 -2.17554415 2.62878252 0 0 Z " fill="#E7E6E2" transform="translate(54,164)"/>
<path d="M0 0 C1.485 0.99 1.485 0.99 3 2 C3 2.66 3 3.32 3 4 C3.66 4 4.32 4 5 4 C5.33 3.34 5.66 2.68 6 2 C5.67 3.98 5.34 5.96 5 8 C4.34 8 3.68 8 3 8 C0 2.25 0 2.25 0 0 Z " fill="#9B9995" transform="translate(264,147)"/>
<path d="M0 0 C1.65 1.65 3.3 3.3 5 5 C4.01 5.33 3.02 5.66 2 6 C1.67 6.66 1.34 7.32 1 8 C0.34 7.01 -0.32 6.02 -1 5 C-0.34 5 0.32 5 1 5 C0.67 3.35 0.34 1.7 0 0 Z " fill="#343333" transform="translate(41,137)"/>
<path d="M0 0 C0.99 0.33 1.98 0.66 3 1 C3 2.65 3 4.3 3 6 C1.35 6.66 -0.3 7.32 -2 8 C-1.67 7.236875 -1.34 6.47375 -1 5.6875 C0.17436686 3.00930865 0.17436686 3.00930865 0 0 Z " fill="#23221F" transform="translate(150,134)"/>
<path d="M0 0 C2.375 0.3125 2.375 0.3125 5 1 C5.66 1.99 6.32 2.98 7 4 C5.02 4 3.04 4 1 4 C0.67 2.68 0.34 1.36 0 0 Z " fill="#393834" transform="translate(193,120)"/>
<path d="M0 0 C1.65 0 3.3 0 5 0 C5 2.31 5 4.62 5 7 C3.5 5.625 3.5 5.625 2 4 C2 3.34 2 2.68 2 2 C1.34 2 0.68 2 0 2 C0 1.34 0 0.68 0 0 Z " fill="#3E3D39" transform="translate(40,115)"/>
<path d="M0 0 C0.33 1.32 0.66 2.64 1 4 C-0.8125 5.0625 -0.8125 5.0625 -3 6 C-3.99 5.67 -4.98 5.34 -6 5 C-5.34 5 -4.68 5 -4 5 C-4 3.68 -4 2.36 -4 1 C-2 0 -2 0 0 0 Z " fill="#E6E3E1" transform="translate(244,115)"/>
<path d="M0 0 C3.875 1.875 3.875 1.875 5 3 C5.04080783 4.99958364 5.04254356 7.00045254 5 9 C2.67527795 6.14693203 1.2491742 3.45925163 0 0 Z " fill="#E4E3E1" transform="translate(102,173)"/>
<path d="M0 0 C0.33 0.66 0.66 1.32 1 2 C-3.49656104 4.24828052 -7.07872966 4.16682272 -12 4 C-12 3.67 -12 3.34 -12 3 C-8.04 2.01 -4.08 1.02 0 0 Z " fill="#ACABA7" transform="translate(194,152)"/>
<path d="M0 0 C0.78375 0.639375 1.5675 1.27875 2.375 1.9375 C4.79539281 3.98142313 4.79539281 3.98142313 7 5 C6.67 5.66 6.34 6.32 6 7 C3.13275314 6.42655063 2.1385485 6.1385485 0 4 C0 2.68 0 1.36 0 0 Z " fill="#242321" transform="translate(27,126)"/>
<path d="M0 0 C3.375 0.3125 3.375 0.3125 7 1 C7.66 1.99 8.32 2.98 9 4 C7 4 5 4 3 4 C3 3.01 3 2.02 3 1 C2.01 0.67 1.02 0.34 0 0 Z " fill="#DAD9D4" transform="translate(74,116)"/>
<path d="M0 0 C0 1.65 0 3.3 0 5 C-1.65 5.33 -3.3 5.66 -5 6 C-4.6875 4.125 -4.6875 4.125 -4 2 C-1 0 -1 0 0 0 Z " fill="#E9E8E4" transform="translate(51,114)"/>
<path d="M0 0 C2.475 0.99 2.475 0.99 5 2 C5.33 1.34 5.66 0.68 6 0 C6 1.98 6 3.96 6 6 C2.26360784 4.75453595 1.81243487 3.36595047 0 0 Z " fill="#383734" transform="translate(136,207)"/>
<path d="M0 0 C0 0.66 0 1.32 0 2 C0.66 2.33 1.32 2.66 2 3 C-2.26826873 3 -2.93882432 2.62386487 -6 0 C-3 -1 -3 -1 0 0 Z " fill="#E8E7E5" transform="translate(268,191)"/>
<path d="M0 0 C2.31 0 4.62 0 7 0 C7 1.65 7 3.3 7 5 C3.535 3.02 3.535 3.02 0 1 C0 0.67 0 0.34 0 0 Z " fill="#3D3C38" transform="translate(126,176)"/>
<path d="M0 0 C1.98 0 3.96 0 6 0 C1.25 4.875 1.25 4.875 -1 6 C-0.67 4.02 -0.34 2.04 0 0 Z " fill="#43423E" transform="translate(51,115)"/>
<path d="M0 0 C0.99 0.33 1.98 0.66 3 1 C1.7934375 1.4021875 1.7934375 1.4021875 0.5625 1.8125 C-0.283125 2.204375 -1.12875 2.59625 -2 3 C-2.33 3.99 -2.66 4.98 -3 6 C-3.99 5.34 -4.98 4.68 -6 4 C-3.1875 1.9375 -3.1875 1.9375 0 0 Z " fill="#676663" transform="translate(146,176)"/>
<path d="M0 0 C2.64 0.33 5.28 0.66 8 1 C7.67 1.66 7.34 2.32 7 3 C5.02 3 3.04 3 1 3 C0.67 2.01 0.34 1.02 0 0 Z " fill="#797874" transform="translate(261,121)"/>
<path d="M0 0 C2.97 0.495 2.97 0.495 6 1 C6 1.99 6 2.98 6 4 C4.02 4.33 2.04 4.66 0 5 C0.33 4.01 0.66 3.02 1 2 C0.67 1.34 0.34 0.68 0 0 Z " fill="#C9C8C4" transform="translate(263,93)"/>
</svg>
